{
  "source": "C:\\Users\\Peter\\Desktop\\stuff\\MIUN\\quantitative_research\\video_compression\\videos\\BVI-HD\\BVI-HD_CDVL_videos\\ORIG\\ParkPlay_1920x1080_50fps.mp4",
  "output": "C:\\Users\\Peter\\Desktop\\stuff\\MIUN\\quantitative_research\\video_compression\\compressed_videos\\BVI-HD\\hevc\\3\\ParkPlay_1920x1080_50fps_hevc.mp4",
  "codec": "hevc",
  "ok": "Input #0, mov,mp4,m4a,3gp,3g2,mj2, from 'C:\\Users\\Peter\\Desktop\\stuff\\MIUN\\quantitative_research\\video_compression\\videos\\BVI-HD\\BVI-HD_CDVL_videos\\ORIG\\ParkPlay_1920x1080_50fps.mp4':\n  Metadata:\n    major_brand     : isom\n    minor_version   : 512\n    compatible_brands: isomiso2avc1mp41\n    encoder         : Lavf54.28.101\n  Duration: 00:00:05.00, start: 0.000000, bitrate: 620563 kb/s\n  Stream #0:0[0x1](und): Video: h264 (High 4:4:4 Predictive) (avc1 / 0x31637661), yuv420p(progressive), 1920x1080, 620558 kb/s, 50 fps, 50 tbr, 50 tbn (default)\n    Metadata:\n      handler_name    : VideoHandler\n      vendor_id       : [0][0][0][0]\n[out#0/mp4 @ 000002205eb27d80] Codec AVOption b:a (set bitrate (in bits/s)) has not been used for any stream. The most likely reason is either wrong type (e.g. a video option with no video streams) or that it is a private option of some decoder which was not actually used for any stream.\nStream mapping:\n  Stream #0:0 -> #0:0 (h264 (native) -> hevc (libx265))\nPress [q] to stop, [?] for help\n[libx265 @ 0000022060c10b40] Unknown option: \"aq-mode.\nx265 [info]: HEVC encoder version 4.1+190-8f11c33ac\nx265 [info]: build info [Windows][GCC 15.1.0][64 bit] 10bit\nx265 [info]: using cpu capabilities: MMX2 SSE2Fast LZCNT SSSE3 SSE4.2 AVX FMA3 BMI2 AVX2\nx265 [info]: Main 10 profile, Level-4.1 (Main tier)\nx265 [info]: Thread pool created using 12 threads\nx265 [info]: Slices                              : 1\nx265 [info]: frame threads / pool features       : 3 / wpp(17 rows)\nx265 [info]: Coding QT: max CU size, min CU size : 64 / 8\nx265 [info]: Residual QT: max TU size, max depth : 32 / 1 inter / 1 intra\nx265 [info]: ME / range / subpel / merge         : star / 57 / 3 / 3\nx265 [info]: Keyframe min / max / scenecut / bias  : 25 / 250 / 40 / 5.00 \nx265 [info]: Lookahead / bframes / badapt        : 25 / 4 / 2\nx265 [info]: b-pyramid / weightp / weightb       : 1 / 1 / 0\nx265 [info]: References / ref-limit  cu / depth  : 4 / on / on\nx265 [info]: AQ: mode / str / qg-size / cu-tree  : 2 / 1.0 / 32 / 1\nx265 [info]: Rate Control / qCompress            : ABR-3000 kbps / 0.60\nx265 [info]: VBV/HRD buffer / max-rate / init    : 3000 / 3000 / 0.750\nx265 [info]: tools: rect limit-modes rd=4 psy-rd=2.00 rdoq=2 psy-rdoq=1.00\nx265 [info]: tools: rskip mode=1 signhide tmvp strong-intra-smoothing lslices=4\nx265 [info]: tools: deblock sao dhdr10-info\nOutput #0, mp4, to 'C:\\Users\\Peter\\Desktop\\stuff\\MIUN\\quantitative_research\\video_compression\\compressed_videos\\BVI-HD\\hevc\\3\\ParkPlay_1920x1080_50fps_hevc.mp4':\n  Metadata:\n    major_brand     : isom\n    minor_version   : 512\n    compatible_brands: isomiso2avc1mp41\n    encoder         : Lavf62.3.100\n  Stream #0:0(und): Video: hevc (hev1 / 0x31766568), yuv420p10le(tv, progressive), 1920x1080, q=2-31, 3000 kb/s, 50 fps, 12800 tbn (default)\n    Metadata:\n      encoder         : Lavc62.11.100 libx265\n      handler_name    : VideoHandler\n      vendor_id       : [0][0][0][0]\n    Side data:\n      cpb: bitrate max/min/avg: 3000000/0/3000000 buffer size: 3000000 vbv_delay: N/A\nframe=    0 fps=0.0 q=0.0 size=       0KiB time=N/A bitrate=N/A speed=N/A elapsed=0:00:01.30    \nframe=    0 fps=0.0 q=0.0 size=       0KiB time=N/A bitrate=N/A speed=N/A elapsed=0:00:01.88    \nframe=    0 fps=0.0 q=0.0 size=       0KiB time=N/A bitrate=N/A speed=N/A elapsed=0:00:02.43    \nframe=    0 fps=0.0 q=0.0 size=       0KiB time=N/A bitrate=N/A speed=N/A elapsed=0:00:02.98    \nframe=    0 fps=0.0 q=0.0 size=       0KiB time=N/A bitrate=N/A speed=N/A elapsed=0:00:03.53    \nframe=    0 fps=0.0 q=0.0 size=       0KiB time=N/A bitrate=N/A speed=N/A elapsed=0:00:04.05    \nframe=    0 fps=0.0 q=0.0 size=       0KiB time=N/A bitrate=N/A speed=N/A elapsed=0:00:04.57    \nframe=    0 fps=0.0 q=0.0 size=       0KiB time=N/A bitrate=N/A speed=N/A elapsed=0:00:05.10    \nframe=    0 fps=0.0 q=0.0 size=       0KiB time=N/A bitrate=N/A speed=N/A elapsed=0:00:05.63    \nframe=    0 fps=0.0 q=0.0 size=       0KiB time=N/A bitrate=N/A speed=N/A elapsed=0:00:06.15    \nframe=    0 fps=0.0 q=0.0 size=       0KiB time=N/A bitrate=N/A speed=N/A elapsed=0:00:06.69    \nframe=    0 fps=0.0 q=0.0 size=       0KiB time=N/A bitrate=N/A speed=N/A elapsed=0:00:07.21    \nframe=    0 fps=0.0 q=0.0 size=       0KiB time=N/A bitrate=N/A speed=N/A elapsed=0:00:07.74    \nframe=    0 fps=0.0 q=0.0 size=       0KiB time=N/A bitrate=N/A speed=N/A elapsed=0:00:08.25    \nframe=    0 fps=0.0 q=0.0 size=       0KiB time=N/A bitrate=N/A speed=N/A elapsed=0:00:08.77    \nframe=    0 fps=0.0 q=0.0 size=       0KiB time=N/A bitrate=N/A speed=N/A elapsed=0:00:09.30    \nframe=    0 fps=0.0 q=0.0 size=       0KiB time=N/A bitrate=N/A speed=N/A elapsed=0:00:09.83    \nframe=    0 fps=0.0 q=0.0 size=       0KiB time=N/A bitrate=N/A speed=N/A elapsed=0:00:10.37    \nframe=    0 fps=0.0 q=0.0 size=       0KiB time=N/A bitrate=N/A speed=N/A elapsed=0:00:10.92    \nframe=    0 fps=0.0 q=0.0 size=       0KiB time=N/A bitrate=N/A speed=N/A elapsed=0:00:11.44    \nframe=    1 fps=0.1 q=40.6 size=       0KiB time=-00:00:00.02 bitrate=N/A speed=N/A elapsed=0:00:11.96    \nframe=    1 fps=0.1 q=40.6 size=       0KiB time=-00:00:00.02 bitrate=N/A speed=N/A elapsed=0:00:12.50    \nframe=    2 fps=0.2 q=45.7 size=       0KiB time=00:00:00.00 bitrate=N/A speed=   0x elapsed=0:00:13.00    \nframe=    2 fps=0.1 q=45.7 size=       0KiB time=00:00:00.00 bitrate=N/A speed=   0x elapsed=0:00:13.52    \nframe=    3 fps=0.2 q=47.4 size=       0KiB time=00:00:00.02 bitrate=  17.6kbits/s speed=0.00142x elapsed=0:00:14.05    \nframe=    3 fps=0.2 q=47.4 size=       0KiB time=00:00:00.02 bitrate=  17.6kbits/s speed=0.00137x elapsed=0:00:14.60    \nframe=    3 fps=0.2 q=47.4 size=       0KiB time=00:00:00.02 bitrate=  17.6kbits/s speed=0.00132x elapsed=0:00:15.12    \nframe=    3 fps=0.2 q=47.4 size=       0KiB time=00:00:00.02 bitrate=  17.6kbits/s speed=0.00128x elapsed=0:00:15.63    \nframe=    3 fps=0.2 q=47.4 size=       0KiB time=00:00:00.02 bitrate=  17.6kbits/s speed=0.00124x elapsed=0:00:16.15    \nframe=    4 fps=0.2 q=50.0 size=       0KiB time=00:00:00.04 bitrate=   8.8kbits/s speed=0.0024x elapsed=0:00:16.68    \nframe=    4 fps=0.2 q=50.0 size=       0KiB time=00:00:00.04 bitrate=   8.8kbits/s speed=0.00232x elapsed=0:00:17.22    \nframe=    4 fps=0.2 q=50.0 size=       0KiB time=00:00:00.04 bitrate=   8.8kbits/s speed=0.00225x elapsed=0:00:17.76    \nframe=    5 fps=0.3 q=47.3 size=       0KiB time=00:00:00.06 bitrate=   5.9kbits/s speed=0.00328x elapsed=0:00:18.30    \nframe=    5 fps=0.3 q=47.3 size=       0KiB time=00:00:00.06 bitrate=   5.9kbits/s speed=0.00318x elapsed=0:00:18.84    \nframe=    5 fps=0.3 q=47.3 size=       0KiB time=00:00:00.06 bitrate=   5.9kbits/s speed=0.00309x elapsed=0:00:19.38    \nframe=    5 fps=0.3 q=47.3 size=       0KiB time=00:00:00.06 bitrate=   5.9kbits/s speed=0.00301x elapsed=0:00:19.91    \nframe=    6 fps=0.3 q=41.2 size=       0KiB time=00:00:00.08 bitrate=   4.4kbits/s speed=0.00391x elapsed=0:00:20.44    \nframe=    6 fps=0.3 q=41.2 size=       0KiB time=00:00:00.08 bitrate=   4.4kbits/s speed=0.00381x elapsed=0:00:20.97    \nframe=    6 fps=0.3 q=41.2 size=       0KiB time=00:00:00.08 bitrate=   4.4kbits/s speed=0.00372x elapsed=0:00:21.50    \nframe=    7 fps=0.3 q=45.1 size=       0KiB time=00:00:00.10 bitrate=   3.5kbits/s speed=0.00454x elapsed=0:00:22.04    \nframe=    7 fps=0.3 q=45.1 size=       0KiB time=00:00:00.10 bitrate=   3.5kbits/s speed=0.00443x elapsed=0:00:22.58    \nframe=    7 fps=0.3 q=45.1 size=       0KiB time=00:00:00.10 bitrate=   3.5kbits/s speed=0.00432x elapsed=0:00:23.12    \nframe=    7 fps=0.3 q=45.1 size=       0KiB time=00:00:00.10 bitrate=   3.5kbits/s speed=0.00423x elapsed=0:00:23.65    \nframe=    7 fps=0.3 q=45.1 size=       0KiB time=00:00:00.10 bitrate=   3.5kbits/s speed=0.00414x elapsed=0:00:24.17    \nframe=    7 fps=0.3 q=45.1 size=       0KiB time=00:00:00.10 bitrate=   3.5kbits/s speed=0.00405x elapsed=0:00:24.69    \nframe=    7 fps=0.3 q=45.1 size=       0KiB time=00:00:00.10 bitrate=   3.5kbits/s speed=0.00396x elapsed=0:00:25.24    \nframe=    8 fps=0.3 q=46.3 size=       0KiB time=00:00:00.12 bitrate=   2.9kbits/s speed=0.00465x elapsed=0:00:25.78    \nframe=    8 fps=0.3 q=46.3 size=       0KiB time=00:00:00.12 bitrate=   2.9kbits/s speed=0.00456x elapsed=0:00:26.32    \nframe=    8 fps=0.3 q=46.3 size=       0KiB time=00:00:00.12 bitrate=   2.9kbits/s speed=0.00447x elapsed=0:00:26.86    \nframe=    8 fps=0.3 q=46.3 size=       0KiB time=00:00:00.12 bitrate=   2.9kbits/s speed=0.00438x elapsed=0:00:27.36    \nframe=    9 fps=0.3 q=45.3 size=       0KiB time=00:00:00.14 bitrate=   2.5kbits/s speed=0.00502x elapsed=0:00:27.90    \nframe=    9 fps=0.3 q=45.3 size=       0KiB time=00:00:00.14 bitrate=   2.5kbits/s speed=0.00492x elapsed=0:00:28.44    \nframe=    9 fps=0.3 q=45.3 size=       0KiB time=00:00:00.14 bitrate=   2.5kbits/s speed=0.00483x elapsed=0:00:28.96    \nframe=   10 fps=0.3 q=40.3 size=       0KiB time=00:00:00.16 bitrate=   2.2kbits/s speed=0.00542x elapsed=0:00:29.49    \nframe=   10 fps=0.3 q=40.3 size=       0KiB time=00:00:00.16 bitrate=   2.2kbits/s speed=0.00533x elapsed=0:00:30.02    \nframe=   10 fps=0.3 q=40.3 size=       0KiB time=00:00:00.16 bitrate=   2.2kbits/s speed=0.00524x elapsed=0:00:30.55    \nframe=   11 fps=0.4 q=42.6 size=       0KiB time=00:00:00.18 bitrate=   2.0kbits/s speed=0.00579x elapsed=0:00:31.09    \nframe=   11 fps=0.3 q=42.6 size=       0KiB time=00:00:00.18 bitrate=   2.0kbits/s speed=0.00569x elapsed=0:00:31.64    \nframe=   11 fps=0.3 q=42.6 size=       0KiB time=00:00:00.18 bitrate=   2.0kbits/s speed=0.0056x elapsed=0:00:32.16    \nframe=   11 fps=0.3 q=42.6 size=       0KiB time=00:00:00.18 bitrate=   2.0kbits/s speed=0.0055x elapsed=0:00:32.71    \nframe=   11 fps=0.3 q=42.6 size=       0KiB time=00:00:00.18 bitrate=   2.0kbits/s speed=0.00542x elapsed=0:00:33.22    \nframe=   11 fps=0.3 q=42.6 size=       0KiB time=00:00:00.18 bitrate=   2.0kbits/s speed=0.00533x elapsed=0:00:33.75    \nframe=   12 fps=0.3 q=44.8 size=       0KiB time=00:00:00.20 bitrate=   1.8kbits/s speed=0.00583x elapsed=0:00:34.29    \nframe=   12 fps=0.3 q=44.8 size=       0KiB time=00:00:00.20 bitrate=   1.8kbits/s speed=0.00574x elapsed=0:00:34.81    \nframe=   12 fps=0.3 q=44.8 size=       0KiB time=00:00:00.20 bitrate=   1.8kbits/s speed=0.00566x elapsed=0:00:35.33    \nframe=   12 fps=0.3 q=44.8 size=       0KiB time=00:00:00.20 bitrate=   1.8kbits/s speed=0.00558x elapsed=0:00:35.86    \nframe=   12 fps=0.3 q=44.8 size=       0KiB time=00:00:00.20 bitrate=   1.8kbits/s speed=0.0055x elapsed=0:00:36.38    \nframe=   13 fps=0.4 q=44.5 size=       0KiB time=00:00:00.22 bitrate=   1.6kbits/s speed=0.00596x elapsed=0:00:36.92    \nframe=   13 fps=0.3 q=44.5 size=       0KiB time=00:00:00.22 bitrate=   1.6kbits/s speed=0.00587x elapsed=0:00:37.45    \nframe=   14 fps=0.4 q=40.0 size=       0KiB time=00:00:00.24 bitrate=   1.5kbits/s speed=0.00632x elapsed=0:00:37.97    \nframe=   14 fps=0.4 q=40.0 size=       0KiB time=00:00:00.24 bitrate=   1.5kbits/s speed=0.00623x elapsed=0:00:38.53    \nframe=   14 fps=0.4 q=40.0 size=       0KiB time=00:00:00.24 bitrate=   1.5kbits/s speed=0.00614x elapsed=0:00:39.07    \nframe=   15 fps=0.4 q=42.2 size=       0KiB time=00:00:00.26 bitrate=   1.4kbits/s speed=0.00656x elapsed=0:00:39.61    \nframe=   15 fps=0.4 q=42.2 size=       0KiB time=00:00:00.26 bitrate=   1.4kbits/s speed=0.00647x elapsed=0:00:40.16    \nframe=   15 fps=0.4 q=42.2 size=       0KiB time=00:00:00.26 bitrate=   1.4kbits/s speed=0.00639x elapsed=0:00:40.70    \nframe=   15 fps=0.4 q=42.2 size=       0KiB time=00:00:00.26 bitrate=   1.4kbits/s speed=0.00631x elapsed=0:00:41.22    \nframe=   16 fps=0.4 q=44.4 size=       0KiB time=00:00:00.28 bitrate=   1.3kbits/s speed=0.00671x elapsed=0:00:41.74    \nframe=   16 fps=0.4 q=44.4 size=       0KiB time=00:00:00.28 bitrate=   1.3kbits/s speed=0.00662x elapsed=0:00:42.27    \nframe=   17 fps=0.4 q=44.3 size=       0KiB time=00:00:00.30 bitrate=   1.2kbits/s speed=0.00701x elapsed=0:00:42.81    \nframe=   17 fps=0.4 q=44.3 size=       0KiB time=00:00:00.30 bitrate=   1.2kbits/s speed=0.00692x elapsed=0:00:43.38    \nframe=   17 fps=0.4 q=44.3 size=       0KiB time=00:00:00.30 bitrate=   1.2kbits/s speed=0.00683x elapsed=0:00:43.91    \nframe=   17 fps=0.4 q=44.3 size=       0KiB time=00:00:00.30 bitrate=   1.2kbits/s speed=0.00675x elapsed=0:00:44.45    \nframe=   17 fps=0.4 q=44.3 size=       0KiB time=00:00:00.30 bitrate=   1.2kbits/s speed=0.00667x elapsed=0:00:44.96    \nframe=   17 fps=0.4 q=44.3 size=       0KiB time=00:00:00.30 bitrate=   1.2kbits/s speed=0.00659x elapsed=0:00:45.49    \nframe=   19 fps=0.4 q=42.1 size=       0KiB time=00:00:00.32 bitrate=   1.1kbits/s speed=0.00695x elapsed=0:00:46.02    \nframe=   19 fps=0.4 q=42.1 size=       0KiB time=00:00:00.34 bitrate=   1.0kbits/s speed=0.0073x elapsed=0:00:46.56    \nframe=   20 fps=0.4 q=44.1 size=       0KiB time=00:00:00.36 bitrate=   1.0kbits/s speed=0.00764x elapsed=0:00:47.10    \nframe=   20 fps=0.4 q=44.1 size=       0KiB time=00:00:00.36 bitrate=   1.0kbits/s speed=0.00756x elapsed=0:00:47.63    \nframe=   20 fps=0.4 q=44.1 size=       0KiB time=00:00:00.36 bitrate=   1.0kbits/s speed=0.00748x elapsed=0:00:48.14    \nframe=   21 fps=0.4 q=44.0 size=       0KiB time=00:00:00.38 bitrate=   0.9kbits/s speed=0.00781x elapsed=0:00:48.67    \nframe=   21 fps=0.4 q=44.0 size=       0KiB time=00:00:00.38 bitrate=   0.9kbits/s speed=0.00772x elapsed=0:00:49.20    \nframe=   21 fps=0.4 q=44.0 size=       0KiB time=00:00:00.38 bitrate=   0.9kbits/s speed=0.00764x elapsed=0:00:49.73    \nframe=   21 fps=0.4 q=44.0 size=       0KiB time=00:00:00.38 bitrate=   0.9kbits/s speed=0.00755x elapsed=0:00:50.31    \nframe=   22 fps=0.4 q=39.7 size=       0KiB time=00:00:00.40 bitrate=   0.9kbits/s speed=0.00787x elapsed=0:00:50.83    \nframe=   23 fps=0.4 q=42.2 size=       0KiB time=00:00:00.42 bitrate=   0.8kbits/s speed=0.00818x elapsed=0:00:51.35    \nframe=   23 fps=0.4 q=42.2 size=       0KiB time=00:00:00.42 bitrate=   0.8kbits/s speed=0.00809x elapsed=0:00:51.90    \nframe=   23 fps=0.4 q=42.2 size=       0KiB time=00:00:00.42 bitrate=   0.8kbits/s speed=0.00801x elapsed=0:00:52.46    \nframe=   23 fps=0.4 q=42.2 size=       0KiB time=00:00:00.42 bitrate=   0.8kbits/s speed=0.00793x elapsed=0:00:52.99    \nframe=   23 fps=0.4 q=42.2 size=       0KiB time=00:00:00.42 bitrate=   0.8kbits/s speed=0.00784x elapsed=0:00:53.55    \nframe=   23 fps=0.4 q=42.2 size=       0KiB time=00:00:00.42 bitrate=   0.8kbits/s speed=0.00777x elapsed=0:00:54.08    \nframe=   23 fps=0.4 q=42.2 size=       0KiB time=00:00:00.42 bitrate=   0.8kbits/s speed=0.00769x elapsed=0:00:54.60    \nframe=   24 fps=0.4 q=44.1 size=       0KiB time=00:00:00.44 bitrate=   0.8kbits/s speed=0.00798x elapsed=0:00:55.14    \nframe=   24 fps=0.4 q=44.1 size=       0KiB time=00:00:00.44 bitrate=   0.8kbits/s speed=0.0079x elapsed=0:00:55.72    \nframe=   24 fps=0.4 q=44.1 size=       0KiB time=00:00:00.44 bitrate=   0.8kbits/s speed=0.00782x elapsed=0:00:56.25    \nframe=   25 fps=0.4 q=44.0 size=       0KiB time=00:00:00.46 bitrate=   0.8kbits/s speed=0.0081x elapsed=0:00:56.79    \nframe=   25 fps=0.4 q=44.0 size=       0KiB time=00:00:00.46 bitrate=   0.8kbits/s speed=0.00802x elapsed=0:00:57.34    \nframe=   26 fps=0.4 q=40.0 size=       0KiB time=00:00:00.48 bitrate=   0.7kbits/s speed=0.00829x elapsed=0:00:57.86    \nframe=   26 fps=0.4 q=40.0 size=       0KiB time=00:00:00.48 bitrate=   0.7kbits/s speed=0.00822x elapsed=0:00:58.40    \nframe=   26 fps=0.4 q=40.0 size=       0KiB time=00:00:00.48 bitrate=   0.7kbits/s speed=0.00814x elapsed=0:00:58.94    \nframe=   27 fps=0.5 q=42.2 size=       0KiB time=00:00:00.50 bitrate=   0.7kbits/s speed=0.00841x elapsed=0:00:59.48    \nframe=   27 fps=0.4 q=42.2 size=       0KiB time=00:00:00.50 bitrate=   0.7kbits/s speed=0.00833x elapsed=0:01:00.04    \nframe=   27 fps=0.4 q=42.2 size=       0KiB time=00:00:00.50 bitrate=   0.7kbits/s speed=0.00825x elapsed=0:01:00.58    \nframe=   27 fps=0.4 q=42.2 size=       0KiB time=00:00:00.50 bitrate=   0.7kbits/s speed=0.00818x elapsed=0:01:01.10    \nframe=   27 fps=0.4 q=42.2 size=       0KiB time=00:00:00.50 bitrate=   0.7kbits/s speed=0.00811x elapsed=0:01:01.64    \nframe=   28 fps=0.5 q=44.0 size=       0KiB time=00:00:00.52 bitrate=   0.7kbits/s speed=0.00836x elapsed=0:01:02.20    \nframe=   28 fps=0.4 q=44.0 size=       0KiB time=00:00:00.52 bitrate=   0.7kbits/s speed=0.00829x elapsed=0:01:02.73    \nframe=   28 fps=0.4 q=44.0 size=       0KiB time=00:00:00.52 bitrate=   0.7kbits/s speed=0.00822x elapsed=0:01:03.27    \nframe=   28 fps=0.4 q=44.0 size=       0KiB time=00:00:00.52 bitrate=   0.7kbits/s speed=0.00815x elapsed=0:01:03.79    \nframe=   29 fps=0.5 q=44.3 size=       0KiB time=00:00:00.54 bitrate=   0.7kbits/s speed=0.00839x elapsed=0:01:04.32    \nframe=   29 fps=0.4 q=44.3 size=       0KiB time=00:00:00.54 bitrate=   0.7kbits/s speed=0.00832x elapsed=0:01:04.87    \nframe=   30 fps=0.5 q=40.2 size=       0KiB time=00:00:00.56 bitrate=   0.6kbits/s speed=0.00855x elapsed=0:01:05.46    \nframe=   30 fps=0.5 q=40.2 size=       0KiB time=00:00:00.56 bitrate=   0.6kbits/s speed=0.00849x elapsed=0:01:05.98    \nframe=   30 fps=0.5 q=40.2 size=       0KiB time=00:00:00.56 bitrate=   0.6kbits/s speed=0.00842x elapsed=0:01:06.52    \nframe=   31 fps=0.5 q=42.2 size=       0KiB time=00:00:00.58 bitrate=   0.6kbits/s speed=0.00865x elapsed=0:01:07.06    \nframe=   31 fps=0.5 q=42.2 size=       0KiB time=00:00:00.58 bitrate=   0.6kbits/s speed=0.00858x elapsed=0:01:07.59    \nframe=   31 fps=0.5 q=42.2 size=       0KiB time=00:00:00.58 bitrate=   0.6kbits/s speed=0.00852x elapsed=0:01:08.10    \nframe=   31 fps=0.5 q=42.2 size=       0KiB time=00:00:00.58 bitrate=   0.6kbits/s speed=0.00844x elapsed=0:01:08.69    \nframe=   31 fps=0.4 q=42.2 size=       0KiB time=00:00:00.58 bitrate=   0.6kbits/s speed=0.00838x elapsed=0:01:09.20    \nframe=   31 fps=0.4 q=42.2 size=       0KiB time=00:00:00.58 bitrate=   0.6kbits/s speed=0.00832x elapsed=0:01:09.73    \nframe=   31 fps=0.4 q=42.2 size=       0KiB time=00:00:00.58 bitrate=   0.6kbits/s speed=0.00825x elapsed=0:01:10.28    \nframe=   32 fps=0.5 q=44.3 size=       0KiB time=00:00:00.60 bitrate=   0.6kbits/s speed=0.00847x elapsed=0:01:10.85    \nframe=   32 fps=0.4 q=44.3 size=       0KiB time=00:00:00.60 bitrate=   0.6kbits/s speed=0.0084x elapsed=0:01:11.45    \nframe=   32 fps=0.4 q=44.3 size=       0KiB time=00:00:00.60 bitrate=   0.6kbits/s speed=0.00832x elapsed=0:01:12.12    \nframe=   32 fps=0.4 q=44.3 size=       0KiB time=00:00:00.60 bitrate=   0.6kbits/s speed=0.00825x elapsed=0:01:12.75    \nframe=   32 fps=0.4 q=44.3 size=       0KiB time=00:00:00.60 bitrate=   0.6kbits/s speed=0.00818x elapsed=0:01:13.38    \nframe=   32 fps=0.4 q=44.3 size=       0KiB time=00:00:00.60 bitrate=   0.6kbits/s speed=0.0081x elapsed=0:01:14.03    \nframe=   32 fps=0.4 q=44.3 size=       0KiB time=00:00:00.60 bitrate=   0.6kbits/s speed=0.00804x elapsed=0:01:14.65    \nframe=   32 fps=0.4 q=44.3 size=       0KiB time=00:00:00.60 bitrate=   0.6kbits/s speed=0.00797x elapsed=0:01:15.28    \nframe=   32 fps=0.4 q=44.3 size=       0KiB time=00:00:00.60 bitrate=   0.6kbits/s speed=0.00791x elapsed=0:01:15.89    \nframe=   32 fps=0.4 q=44.3 size=       0KiB time=00:00:00.60 bitrate=   0.6kbits/s speed=0.00783x elapsed=0:01:16.60    \nframe=   32 fps=0.4 q=44.3 size=       0KiB time=00:00:00.60 bitrate=   0.6kbits/s speed=0.00777x elapsed=0:01:17.21    \nframe=   32 fps=0.4 q=44.3 size=       0KiB time=00:00:00.60 bitrate=   0.6kbits/s speed=0.00772x elapsed=0:01:17.74    \nframe=   32 fps=0.4 q=44.3 size=       0KiB time=00:00:00.60 bitrate=   0.6kbits/s speed=0.00766x elapsed=0:01:18.33    \nframe=   32 fps=0.4 q=44.3 size=       0KiB time=00:00:00.60 bitrate=   0.6kbits/s speed=0.00761x elapsed=0:01:18.86    \nframe=   32 fps=0.4 q=44.3 size=       0KiB time=00:00:00.60 bitrate=   0.6kbits/s speed=0.00756x elapsed=0:01:19.41    \nframe=   32 fps=0.4 q=44.3 size=       0KiB time=00:00:00.60 bitrate=   0.6kbits/s speed=0.00751x elapsed=0:01:19.94    \nframe=   32 fps=0.4 q=44.3 size=       0KiB time=00:00:00.60 bitrate=   0.6kbits/s speed=0.00745x elapsed=0:01:20.50    \nframe=   32 fps=0.4 q=44.3 size=       0KiB time=00:00:00.60 bitrate=   0.6kbits/s speed=0.0074x elapsed=0:01:21.05    \nframe=   32 fps=0.4 q=44.3 size=       0KiB time=00:00:00.60 bitrate=   0.6kbits/s speed=0.00735x elapsed=0:01:21.58    \nframe=   33 fps=0.4 q=44.2 size=       0KiB time=00:00:00.62 bitrate=   0.6kbits/s speed=0.00755x elapsed=0:01:22.15    \nframe=   33 fps=0.4 q=44.2 size=       0KiB time=00:00:00.62 bitrate=   0.6kbits/s speed=0.0075x elapsed=0:01:22.69    \nframe=   33 fps=0.4 q=44.2 size=       0KiB time=00:00:00.62 bitrate=   0.6kbits/s speed=0.00745x elapsed=0:01:23.21    \nframe=   33 fps=0.4 q=44.2 size=       0KiB time=00:00:00.62 bitrate=   0.6kbits/s speed=0.0074x elapsed=0:01:23.73    \nframe=   33 fps=0.4 q=44.2 size=       0KiB time=00:00:00.62 bitrate=   0.6kbits/s speed=0.00736x elapsed=0:01:24.27    \nframe=   33 fps=0.4 q=44.2 size=       0KiB time=00:00:00.62 bitrate=   0.6kbits/s speed=0.00731x elapsed=0:01:24.79    \nframe=   34 fps=0.4 q=39.9 size=       0KiB time=00:00:00.64 bitrate=   0.6kbits/s speed=0.0075x elapsed=0:01:25.34    \nframe=   34 fps=0.4 q=39.9 size=       0KiB time=00:00:00.64 bitrate=   0.6kbits/s speed=0.00745x elapsed=0:01:25.89    \nframe=   35 fps=0.4 q=42.3 size=       0KiB time=00:00:00.66 bitrate=   0.5kbits/s speed=0.00764x elapsed=0:01:26.42    \nframe=   35 fps=0.4 q=42.3 size=       0KiB time=00:00:00.66 bitrate=   0.5kbits/s speed=0.00759x elapsed=0:01:26.92    \nframe=   35 fps=0.4 q=42.3 size=       0KiB time=00:00:00.66 bitrate=   0.5kbits/s speed=0.00755x elapsed=0:01:27.46    \nframe=   36 fps=0.4 q=44.3 size=       0KiB time=00:00:00.68 bitrate=   0.5kbits/s speed=0.00773x elapsed=0:01:27.98    \nframe=   36 fps=0.4 q=44.3 size=       0KiB time=00:00:00.68 bitrate=   0.5kbits/s speed=0.00768x elapsed=0:01:28.49    \nframe=   36 fps=0.4 q=44.3 size=       0KiB time=00:00:00.68 bitrate=   0.5kbits/s speed=0.00764x elapsed=0:01:29.00    \nframe=   37 fps=0.4 q=44.4 size=       0KiB time=00:00:00.70 bitrate=   0.5kbits/s speed=0.00781x elapsed=0:01:29.57    \nframe=   37 fps=0.4 q=44.4 size=       0KiB time=00:00:00.70 bitrate=   0.5kbits/s speed=0.00777x elapsed=0:01:30.13    \nframe=   38 fps=0.4 q=40.2 size=       0KiB time=00:00:00.72 bitrate=   0.5kbits/s speed=0.00794x elapsed=0:01:30.64    \nframe=   38 fps=0.4 q=40.2 size=       0KiB time=00:00:00.72 bitrate=   0.5kbits/s speed=0.0079x elapsed=0:01:31.17    \nframe=   39 fps=0.4 q=42.0 size=     256KiB time=00:00:00.74 bitrate=2834.5kbits/s speed=0.00807x elapsed=0:01:31.70    \nframe=   39 fps=0.4 q=42.0 size=     256KiB time=00:00:00.74 bitrate=2834.5kbits/s speed=0.00802x elapsed=0:01:32.24    \nframe=   39 fps=0.4 q=42.0 size=     256KiB time=00:00:00.74 bitrate=2834.5kbits/s speed=0.00798x elapsed=0:01:32.77    \nframe=   39 fps=0.4 q=42.0 size=     256KiB time=00:00:00.74 bitrate=2834.5kbits/s speed=0.00793x elapsed=0:01:33.31    \nframe=   39 fps=0.4 q=42.0 size=     256KiB time=00:00:00.74 bitrate=2834.5kbits/s speed=0.00788x elapsed=0:01:33.86    \nframe=   39 fps=0.4 q=42.0 size=     256KiB time=00:00:00.74 bitrate=2834.5kbits/s speed=0.00784x elapsed=0:01:34.38    \nframe=   39 fps=0.4 q=42.0 size=     256KiB time=00:00:00.74 bitrate=2834.5kbits/s speed=0.0078x elapsed=0:01:34.90    \nframe=   40 fps=0.4 q=44.3 size=     256KiB time=00:00:00.76 bitrate=2759.9kbits/s speed=0.00796x elapsed=0:01:35.43    \nframe=   40 fps=0.4 q=44.3 size=     256KiB time=00:00:00.76 bitrate=2759.9kbits/s speed=0.00792x elapsed=0:01:35.96    \nframe=   40 fps=0.4 q=44.3 size=     256KiB time=00:00:00.76 bitrate=2759.9kbits/s speed=0.00787x elapsed=0:01:36.52    \nframe=   41 fps=0.4 q=44.2 size=     256KiB time=00:00:00.78 bitrate=2689.1kbits/s speed=0.00804x elapsed=0:01:37.06    \nframe=   41 fps=0.4 q=44.2 size=     256KiB time=00:00:00.78 bitrate=2689.1kbits/s speed=0.00799x elapsed=0:01:37.61    \nframe=   41 fps=0.4 q=44.2 size=     256KiB time=00:00:00.78 bitrate=2689.1kbits/s speed=0.00795x elapsed=0:01:38.14    \nframe=   41 fps=0.4 q=44.2 size=     256KiB time=00:00:00.78 bitrate=2689.1kbits/s speed=0.0079x elapsed=0:01:38.68    \nframe=   41 fps=0.4 q=44.2 size=     256KiB time=00:00:00.78 bitrate=2689.1kbits/s speed=0.00786x elapsed=0:01:39.21    \nframe=   41 fps=0.4 q=44.2 size=     256KiB time=00:00:00.78 bitrate=2689.1kbits/s speed=0.00782x elapsed=0:01:39.72    \nframe=   41 fps=0.4 q=44.2 size=     256KiB time=00:00:00.78 bitrate=2689.1kbits/s speed=0.00778x elapsed=0:01:40.26    \nframe=   41 fps=0.4 q=44.2 size=     256KiB time=00:00:00.78 bitrate=2689.1kbits/s speed=0.00774x elapsed=0:01:40.79    \nframe=   42 fps=0.4 q=40.1 size=     256KiB time=00:00:00.80 bitrate=2621.9kbits/s speed=0.0079x elapsed=0:01:41.30    \nframe=   42 fps=0.4 q=40.1 size=     256KiB time=00:00:00.80 bitrate=2621.9kbits/s speed=0.00785x elapsed=0:01:41.85    \nframe=   43 fps=0.4 q=41.9 size=     256KiB time=00:00:00.82 bitrate=2557.9kbits/s speed=0.00801x elapsed=0:01:42.39    \nframe=   43 fps=0.4 q=41.9 size=     256KiB time=00:00:00.82 bitrate=2557.9kbits/s speed=0.00797x elapsed=0:01:42.94    \nframe=   43 fps=0.4 q=41.9 size=     256KiB time=00:00:00.82 bitrate=2557.9kbits/s speed=0.00792x elapsed=0:01:43.47    \nframe=   43 fps=0.4 q=41.9 size=     256KiB time=00:00:00.82 bitrate=2557.9kbits/s speed=0.00788x elapsed=0:01:44.01    \nframe=   44 fps=0.4 q=44.3 size=     256KiB time=00:00:00.84 bitrate=2497.0kbits/s speed=0.00804x elapsed=0:01:44.53    \nframe=   44 fps=0.4 q=44.3 size=     256KiB time=00:00:00.84 bitrate=2497.0kbits/s speed=0.00799x elapsed=0:01:45.06    \nframe=   44 fps=0.4 q=44.3 size=     256KiB time=00:00:00.84 bitrate=2497.0kbits/s speed=0.00795x elapsed=0:01:45.62    \nframe=   44 fps=0.4 q=44.3 size=     256KiB time=00:00:00.84 bitrate=2497.0kbits/s speed=0.00791x elapsed=0:01:46.16    \nframe=   44 fps=0.4 q=44.3 size=     256KiB time=00:00:00.84 bitrate=2497.0kbits/s speed=0.00787x elapsed=0:01:46.70    \nframe=   45 fps=0.4 q=44.3 size=     256KiB time=00:00:00.86 bitrate=2439.0kbits/s speed=0.00802x elapsed=0:01:47.23    \nframe=   45 fps=0.4 q=44.3 size=     256KiB time=00:00:00.86 bitrate=2439.0kbits/s speed=0.00798x elapsed=0:01:47.75    \nframe=   45 fps=0.4 q=44.3 size=     256KiB time=00:00:00.86 bitrate=2439.0kbits/s speed=0.00794x elapsed=0:01:48.29    \nframe=   46 fps=0.4 q=40.2 size=     256KiB time=00:00:00.88 bitrate=2383.5kbits/s speed=0.00809x elapsed=0:01:48.82    \nframe=   46 fps=0.4 q=40.2 size=     256KiB time=00:00:00.88 bitrate=2383.5kbits/s speed=0.00805x elapsed=0:01:49.34    \nframe=   46 fps=0.4 q=40.2 size=     256KiB time=00:00:00.88 bitrate=2383.5kbits/s speed=0.00801x elapsed=0:01:49.86    \nframe=   47 fps=0.4 q=42.0 size=     256KiB time=00:00:00.90 bitrate=2330.6kbits/s speed=0.00815x elapsed=0:01:50.41    \nframe=   47 fps=0.4 q=42.0 size=     256KiB time=00:00:00.90 bitrate=2330.6kbits/s speed=0.00811x elapsed=0:01:50.95    \nframe=   47 fps=0.4 q=42.0 size=     256KiB time=00:00:00.90 bitrate=2330.6kbits/s speed=0.00807x elapsed=0:01:51.47    \nframe=   47 fps=0.4 q=42.0 size=     256KiB time=00:00:00.90 bitrate=2330.6kbits/s speed=0.00803x elapsed=0:01:52.01    \nframe=   47 fps=0.4 q=42.0 size=     256KiB time=00:00:00.90 bitrate=2330.6kbits/s speed=0.008x elapsed=0:01:52.53    \nframe=   47 fps=0.4 q=42.0 size=     256KiB time=00:00:00.90 bitrate=2330.6kbits/s speed=0.00796x elapsed=0:01:53.08    \nframe=   47 fps=0.4 q=42.0 size=     256KiB time=00:00:00.90 bitrate=2330.6kbits/s speed=0.00792x elapsed=0:01:53.63    \nframe=   48 fps=0.4 q=44.2 size=     256KiB time=00:00:00.92 bitrate=2279.9kbits/s speed=0.00806x elapsed=0:01:54.14    \nframe=   48 fps=0.4 q=44.2 size=     256KiB time=00:00:00.92 bitrate=2279.9kbits/s speed=0.00802x elapsed=0:01:54.68    \nframe=   48 fps=0.4 q=44.2 size=     256KiB time=00:00:00.92 bitrate=2279.9kbits/s speed=0.00799x elapsed=0:01:55.20    \nframe=   48 fps=0.4 q=44.2 size=     256KiB time=00:00:00.92 bitrate=2279.9kbits/s speed=0.00795x elapsed=0:01:55.74    \nframe=   48 fps=0.4 q=44.2 size=     256KiB time=00:00:00.92 bitrate=2279.9kbits/s speed=0.00791x elapsed=0:01:56.27    \nframe=   49 fps=0.4 q=44.1 size=     256KiB time=00:00:00.94 bitrate=2231.4kbits/s speed=0.00805x elapsed=0:01:56.80    \nframe=   49 fps=0.4 q=44.1 size=     256KiB time=00:00:00.94 bitrate=2231.4kbits/s speed=0.00801x elapsed=0:01:57.35    \nframe=   50 fps=0.4 q=40.0 size=     256KiB time=00:00:00.96 bitrate=2184.9kbits/s speed=0.00814x elapsed=0:01:57.87    \nframe=   50 fps=0.4 q=40.0 size=     256KiB time=00:00:00.96 bitrate=2184.9kbits/s speed=0.00811x elapsed=0:01:58.39    \nframe=   51 fps=0.4 q=42.2 size=     256KiB time=00:00:00.98 bitrate=2140.3kbits/s speed=0.00824x elapsed=0:01:58.92    \nframe=   51 fps=0.4 q=42.2 size=     256KiB time=00:00:00.98 bitrate=2140.3kbits/s speed=0.0082x elapsed=0:01:59.47    \nframe=   51 fps=0.4 q=42.2 size=     256KiB time=00:00:00.98 bitrate=2140.3kbits/s speed=0.00817x elapsed=0:02:00.00    \nframe=   51 fps=0.4 q=42.2 size=     256KiB time=00:00:00.98 bitrate=2140.3kbits/s speed=0.00813x elapsed=0:02:00.53    \nframe=   51 fps=0.4 q=42.2 size=     256KiB time=00:00:00.98 bitrate=2140.3kbits/s speed=0.0081x elapsed=0:02:01.03    \nframe=   51 fps=0.4 q=42.2 size=     256KiB time=00:00:00.98 bitrate=2140.3kbits/s speed=0.00806x elapsed=0:02:01.56    \nframe=   51 fps=0.4 q=42.2 size=     256KiB time=00:00:00.98 bitrate=2140.3kbits/s speed=0.00803x elapsed=0:02:02.09    \nframe=   51 fps=0.4 q=42.2 size=     256KiB time=00:00:00.98 bitrate=2140.3kbits/s speed=0.00799x elapsed=0:02:02.62    \nframe=   51 fps=0.4 q=42.2 size=     256KiB time=00:00:00.98 bitrate=2140.3kbits/s speed=0.00796x elapsed=0:02:03.13    \nframe=   52 fps=0.4 q=44.1 size=     256KiB time=00:00:01.00 bitrate=2097.5kbits/s speed=0.00808x elapsed=0:02:03.71    \nframe=   52 fps=0.4 q=44.1 size=     256KiB time=00:00:01.00 bitrate=2097.5kbits/s speed=0.00805x elapsed=0:02:04.24    \nframe=   52 fps=0.4 q=44.1 size=     256KiB time=00:00:01.00 bitrate=2097.5kbits/s speed=0.00802x elapsed=0:02:04.76    \nframe=   52 fps=0.4 q=44.1 size=     256KiB time=00:00:01.00 bitrate=2097.5kbits/s speed=0.00798x elapsed=0:02:05.28    \nframe=   52 fps=0.4 q=44.1 size=     256KiB time=00:00:01.00 bitrate=2097.5kbits/s speed=0.00795x elapsed=0:02:05.80    \nframe=   53 fps=0.4 q=44.3 size=     256KiB time=00:00:01.00 bitrate=2097.5kbits/s speed=0.00792x elapsed=0:02:06.32    \nframe=   53 fps=0.4 q=44.3 size=     256KiB time=00:00:01.02 bitrate=2056.4kbits/s speed=0.00804x elapsed=0:02:06.85    \nframe=   53 fps=0.4 q=44.3 size=     256KiB time=00:00:01.02 bitrate=2056.4kbits/s speed=0.00801x elapsed=0:02:07.36    \nframe=   53 fps=0.4 q=44.3 size=     256KiB time=00:00:01.02 bitrate=2056.4kbits/s speed=0.00798x elapsed=0:02:07.88    \nframe=   54 fps=0.4 q=39.9 size=     256KiB time=00:00:01.04 bitrate=2016.8kbits/s speed=0.0081x elapsed=0:02:08.43    \nframe=   54 fps=0.4 q=39.9 size=     256KiB time=00:00:01.04 bitrate=2016.8kbits/s speed=0.00807x elapsed=0:02:08.94    \nframe=   55 fps=0.4 q=42.1 size=     256KiB time=00:00:01.06 bitrate=1978.8kbits/s speed=0.00819x elapsed=0:02:09.46    \nframe=   55 fps=0.4 q=42.1 size=     256KiB time=00:00:01.06 bitrate=1978.8kbits/s speed=0.00815x elapsed=0:02:10.01    \nframe=   56 fps=0.4 q=44.2 size=     256KiB time=00:00:01.08 bitrate=1942.1kbits/s speed=0.00827x elapsed=0:02:10.55    \nframe=   56 fps=0.4 q=44.2 size=     256KiB time=00:00:01.08 bitrate=1942.1kbits/s speed=0.00824x elapsed=0:02:11.07    \nframe=   56 fps=0.4 q=44.2 size=     256KiB time=00:00:01.08 bitrate=1942.1kbits/s speed=0.00821x elapsed=0:02:11.60    \nframe=   56 fps=0.4 q=44.2 size=     256KiB time=00:00:01.08 bitrate=1942.1kbits/s speed=0.00817x elapsed=0:02:12.13    \nframe=   56 fps=0.4 q=44.2 size=     256KiB time=00:00:01.08 bitrate=1942.1kbits/s speed=0.00814x elapsed=0:02:12.64    \nframe=   57 fps=0.4 q=44.3 size=     256KiB time=00:00:01.10 bitrate=1906.8kbits/s speed=0.00826x elapsed=0:02:13.16    \nframe=   57 fps=0.4 q=44.3 size=     256KiB time=00:00:01.10 bitrate=1906.8kbits/s speed=0.00823x elapsed=0:02:13.68    \nframe=   58 fps=0.4 q=39.9 size=     256KiB time=00:00:01.12 bitrate=1872.8kbits/s speed=0.00835x elapsed=0:02:14.19    \nframe=   59 fps=0.4 q=42.0 size=     256KiB time=00:00:01.14 bitrate=1839.9kbits/s speed=0.00846x elapsed=0:02:14.72    \nframe=   59 fps=0.4 q=42.0 size=     256KiB time=00:00:01.14 bitrate=1839.9kbits/s speed=0.00843x elapsed=0:02:15.24    \nframe=   59 fps=0.4 q=42.0 size=     256KiB time=00:00:01.14 bitrate=1839.9kbits/s speed=0.0084x elapsed=0:02:15.77    \nframe=   59 fps=0.4 q=42.0 size=     256KiB time=00:00:01.14 bitrate=1839.9kbits/s speed=0.00836x elapsed=0:02:16.30    \nframe=   59 fps=0.4 q=42.0 size=     256KiB time=00:00:01.14 bitrate=1839.9kbits/s speed=0.00833x elapsed=0:02:16.86    \nframe=   59 fps=0.4 q=42.0 size=     256KiB time=00:00:01.14 bitrate=1839.9kbits/s speed=0.0083x elapsed=0:02:17.39    \nframe=   60 fps=0.4 q=44.5 size=     256KiB time=00:00:01.16 bitrate=1808.2kbits/s speed=0.00841x elapsed=0:02:17.95    \nframe=   60 fps=0.4 q=44.5 size=     256KiB time=00:00:01.16 bitrate=1808.2kbits/s speed=0.00838x elapsed=0:02:18.46    \nframe=   61 fps=0.4 q=44.2 size=     256KiB time=00:00:01.18 bitrate=1777.5kbits/s speed=0.00849x elapsed=0:02:18.98    \nframe=   61 fps=0.4 q=44.2 size=     256KiB time=00:00:01.18 bitrate=1777.5kbits/s speed=0.00846x elapsed=0:02:19.51    \nframe=   61 fps=0.4 q=44.2 size=     256KiB time=00:00:01.18 bitrate=1777.5kbits/s speed=0.00843x elapsed=0:02:20.03    \nframe=   61 fps=0.4 q=44.2 size=     256KiB time=00:00:01.18 bitrate=1777.5kbits/s speed=0.00839x elapsed=0:02:20.56    \nframe=   62 fps=0.4 q=39.8 size=     256KiB time=00:00:01.20 bitrate=1747.9kbits/s speed=0.00851x elapsed=0:02:21.06    \nframe=   62 fps=0.4 q=39.8 size=     256KiB time=00:00:01.20 bitrate=1747.9kbits/s speed=0.00848x elapsed=0:02:21.58    \nframe=   63 fps=0.4 q=42.2 size=     256KiB time=00:00:01.22 bitrate=1719.3kbits/s speed=0.00858x elapsed=0:02:22.11    \nframe=   63 fps=0.4 q=42.2 size=     256KiB time=00:00:01.22 bitrate=1719.3kbits/s speed=0.00855x elapsed=0:02:22.62    \nframe=   63 fps=0.4 q=42.2 size=     256KiB time=00:00:01.22 bitrate=1719.3kbits/s speed=0.00852x elapsed=0:02:23.15    \nframe=   63 fps=0.4 q=42.2 size=     256KiB time=00:00:01.22 bitrate=1719.3kbits/s speed=0.00849x elapsed=0:02:23.66    \nframe=   64 fps=0.4 q=44.2 size=     256KiB time=00:00:01.24 bitrate=1691.5kbits/s speed=0.0086x elapsed=0:02:24.18    \nframe=   64 fps=0.4 q=44.2 size=     256KiB time=00:00:01.24 bitrate=1691.5kbits/s speed=0.00857x elapsed=0:02:24.72    \nframe=   64 fps=0.4 q=44.2 size=     256KiB time=00:00:01.24 bitrate=1691.5kbits/s speed=0.00854x elapsed=0:02:25.26    \nframe=   64 fps=0.4 q=44.2 size=     256KiB time=00:00:01.24 bitrate=1691.5kbits/s speed=0.00851x elapsed=0:02:25.78    \nframe=   65 fps=0.4 q=44.3 size=     256KiB time=00:00:01.26 bitrate=1664.7kbits/s speed=0.00861x elapsed=0:02:26.30    \nframe=   65 fps=0.4 q=44.3 size=     256KiB time=00:00:01.26 bitrate=1664.7kbits/s speed=0.00858x elapsed=0:02:26.82    \nframe=   65 fps=0.4 q=44.3 size=     256KiB time=00:00:01.26 bitrate=1664.7kbits/s speed=0.00855x elapsed=0:02:27.35    \nframe=   65 fps=0.4 q=44.3 size=     256KiB time=00:00:01.26 bitrate=1664.7kbits/s speed=0.00852x elapsed=0:02:27.90    \nframe=   66 fps=0.4 q=39.9 size=     256KiB time=00:00:01.28 bitrate=1638.7kbits/s speed=0.00862x elapsed=0:02:28.42    \nframe=   66 fps=0.4 q=39.9 size=     256KiB time=00:00:01.28 bitrate=1638.7kbits/s speed=0.00859x elapsed=0:02:28.94    \nframe=   66 fps=0.4 q=39.9 size=     256KiB time=00:00:01.28 bitrate=1638.7kbits/s speed=0.00856x elapsed=0:02:29.47    \nframe=   66 fps=0.4 q=39.9 size=     256KiB time=00:00:01.28 bitrate=1638.7kbits/s speed=0.00853x elapsed=0:02:30.02    \nframe=   67 fps=0.4 q=42.6 size=     256KiB time=00:00:01.30 bitrate=1613.5kbits/s speed=0.00863x elapsed=0:02:30.56    \nframe=   67 fps=0.4 q=42.6 size=     256KiB time=00:00:01.30 bitrate=1613.5kbits/s speed=0.0086x elapsed=0:02:31.11    \nframe=   67 fps=0.4 q=42.6 size=     256KiB time=00:00:01.30 bitrate=1613.5kbits/s speed=0.00857x elapsed=0:02:31.64    \nframe=   67 fps=0.4 q=42.6 size=     256KiB time=00:00:01.30 bitrate=1613.5kbits/s speed=0.00854x elapsed=0:02:32.16    \nframe=   67 fps=0.4 q=42.6 size=     256KiB time=00:00:01.30 bitrate=1613.5kbits/s speed=0.00851x elapsed=0:02:32.73    \nframe=   67 fps=0.4 q=42.6 size=     256KiB time=00:00:01.30 bitrate=1613.5kbits/s speed=0.00848x elapsed=0:02:33.25    \nframe=   67 fps=0.4 q=42.6 size=     256KiB time=00:00:01.30 bitrate=1613.5kbits/s speed=0.00845x elapsed=0:02:33.78    \nframe=   67 fps=0.4 q=42.6 size=     256KiB time=00:00:01.30 bitrate=1613.5kbits/s speed=0.00842x elapsed=0:02:34.35    \nframe=   67 fps=0.4 q=42.6 size=     256KiB time=00:00:01.30 bitrate=1613.5kbits/s speed=0.00839x elapsed=0:02:34.90    \nframe=   67 fps=0.4 q=42.6 size=     256KiB time=00:00:01.30 bitrate=1613.5kbits/s speed=0.00836x elapsed=0:02:35.48    \nframe=   67 fps=0.4 q=42.6 size=     256KiB time=00:00:01.30 bitrate=1613.5kbits/s speed=0.00833x elapsed=0:02:36.02    \nframe=   68 fps=0.4 q=44.3 size=     256KiB time=00:00:01.32 bitrate=1589.0kbits/s speed=0.00843x elapsed=0:02:36.60    \nframe=   68 fps=0.4 q=44.3 size=     256KiB time=00:00:01.32 bitrate=1589.0kbits/s speed=0.0084x elapsed=0:02:37.21    \nframe=   68 fps=0.4 q=44.3 size=     256KiB time=00:00:01.32 bitrate=1589.0kbits/s speed=0.00836x elapsed=0:02:37.90    \nframe=   68 fps=0.4 q=44.3 size=     256KiB time=00:00:01.32 bitrate=1589.0kbits/s speed=0.00833x elapsed=0:02:38.54    \nframe=   68 fps=0.4 q=44.3 size=     256KiB time=00:00:01.32 bitrate=1589.0kbits/s speed=0.00829x elapsed=0:02:39.23    \nframe=   68 fps=0.4 q=44.3 size=     256KiB time=00:00:01.32 bitrate=1589.0kbits/s speed=0.00826x elapsed=0:02:39.83    \nframe=   68 fps=0.4 q=44.3 size=     256KiB time=00:00:01.32 bitrate=1589.0kbits/s speed=0.00823x elapsed=0:02:40.38    \nframe=   68 fps=0.4 q=44.3 size=     256KiB time=00:00:01.32 bitrate=1589.0kbits/s speed=0.0082x elapsed=0:02:40.94    \nframe=   68 fps=0.4 q=44.3 size=     256KiB time=00:00:01.32 bitrate=1589.0kbits/s speed=0.00817x elapsed=0:02:41.49    \nframe=   68 fps=0.4 q=44.3 size=     256KiB time=00:00:01.32 bitrate=1589.0kbits/s speed=0.00814x elapsed=0:02:42.07    \nframe=   68 fps=0.4 q=44.3 size=     256KiB time=00:00:01.32 bitrate=1589.0kbits/s speed=0.00812x elapsed=0:02:42.65    \nframe=   68 fps=0.4 q=44.3 size=     256KiB time=00:00:01.32 bitrate=1589.0kbits/s speed=0.00809x elapsed=0:02:43.21    \nframe=   68 fps=0.4 q=44.3 size=     256KiB time=00:00:01.32 bitrate=1589.0kbits/s speed=0.00806x elapsed=0:02:43.82    \nframe=   68 fps=0.4 q=44.3 size=     256KiB time=00:00:01.32 bitrate=1589.0kbits/s speed=0.00803x elapsed=0:02:44.38    \nframe=   69 fps=0.4 q=44.4 size=     256KiB time=00:00:01.34 bitrate=1565.3kbits/s speed=0.00812x elapsed=0:02:44.95    \nframe=   69 fps=0.4 q=44.4 size=     256KiB time=00:00:01.34 bitrate=1565.3kbits/s speed=0.0081x elapsed=0:02:45.47    \nframe=   69 fps=0.4 q=44.4 size=     256KiB time=00:00:01.34 bitrate=1565.3kbits/s speed=0.00807x elapsed=0:02:45.99    \nframe=   69 fps=0.4 q=44.4 size=     256KiB time=00:00:01.34 bitrate=1565.3kbits/s speed=0.00805x elapsed=0:02:46.55    \nframe=   69 fps=0.4 q=44.4 size=     256KiB time=00:00:01.34 bitrate=1565.3kbits/s speed=0.00802x elapsed=0:02:47.11    \nframe=   70 fps=0.4 q=39.9 size=     256KiB time=00:00:01.36 bitrate=1542.3kbits/s speed=0.00811x elapsed=0:02:47.68    \nframe=   70 fps=0.4 q=39.9 size=     256KiB time=00:00:01.36 bitrate=1542.3kbits/s speed=0.00809x elapsed=0:02:48.20    \nframe=   70 fps=0.4 q=39.9 size=     256KiB time=00:00:01.36 bitrate=1542.3kbits/s speed=0.00806x elapsed=0:02:48.79    \nframe=   70 fps=0.4 q=39.9 size=     256KiB time=00:00:01.36 bitrate=1542.3kbits/s speed=0.00803x elapsed=0:02:49.32    \nframe=   71 fps=0.4 q=42.5 size=     512KiB time=00:00:01.38 bitrate=3039.6kbits/s speed=0.00813x elapsed=0:02:49.84    \nframe=   71 fps=0.4 q=42.5 size=     512KiB time=00:00:01.38 bitrate=3039.6kbits/s speed=0.0081x elapsed=0:02:50.36    \nframe=   71 fps=0.4 q=42.5 size=     512KiB time=00:00:01.38 bitrate=3039.6kbits/s speed=0.00808x elapsed=0:02:50.88    \nframe=   71 fps=0.4 q=42.5 size=     512KiB time=00:00:01.38 bitrate=3039.6kbits/s speed=0.00805x elapsed=0:02:51.40    \nframe=   72 fps=0.4 q=44.8 size=     512KiB time=00:00:01.38 bitrate=3039.6kbits/s speed=0.00803x elapsed=0:02:51.94    \nframe=   72 fps=0.4 q=44.8 size=     512KiB time=00:00:01.40 bitrate=2996.2kbits/s speed=0.00812x elapsed=0:02:52.51    \nframe=   73 fps=0.4 q=44.9 size=     512KiB time=00:00:01.42 bitrate=2954.0kbits/s speed=0.00821x elapsed=0:02:53.02    \nframe=   73 fps=0.4 q=44.9 size=     512KiB time=00:00:01.42 bitrate=2954.0kbits/s speed=0.00818x elapsed=0:02:53.55    \nframe=   73 fps=0.4 q=44.9 size=     512KiB time=00:00:01.42 bitrate=2954.0kbits/s speed=0.00816x elapsed=0:02:54.08    \nframe=   74 fps=0.4 q=40.0 size=     512KiB time=00:00:01.44 bitrate=2913.0kbits/s speed=0.00825x elapsed=0:02:54.60    \nframe=   74 fps=0.4 q=40.0 size=     512KiB time=00:00:01.44 bitrate=2913.0kbits/s speed=0.00822x elapsed=0:02:55.13    \nframe=   75 fps=0.4 q=42.6 size=     512KiB time=00:00:01.46 bitrate=2873.1kbits/s speed=0.00831x elapsed=0:02:55.64    \nframe=   75 fps=0.4 q=42.6 size=     512KiB time=00:00:01.46 bitrate=2873.1kbits/s speed=0.00829x elapsed=0:02:56.17    \nframe=   75 fps=0.4 q=42.6 size=     512KiB time=00:00:01.46 bitrate=2873.1kbits/s speed=0.00826x elapsed=0:02:56.69    \nframe=   75 fps=0.4 q=42.6 size=     512KiB time=00:00:01.46 bitrate=2873.1kbits/s speed=0.00824x elapsed=0:02:57.21    \nframe=   76 fps=0.4 q=44.8 size=     512KiB time=00:00:01.48 bitrate=2834.2kbits/s speed=0.00833x elapsed=0:02:57.76    \nframe=   76 fps=0.4 q=44.8 size=     512KiB time=00:00:01.48 bitrate=2834.2kbits/s speed=0.0083x elapsed=0:02:58.30    \nframe=   76 fps=0.4 q=44.8 size=     512KiB time=00:00:01.48 bitrate=2834.2kbits/s speed=0.00828x elapsed=0:02:58.81    \nframe=   76 fps=0.4 q=44.8 size=     512KiB time=00:00:01.48 bitrate=2834.2kbits/s speed=0.00825x elapsed=0:02:59.35    \nframe=   76 fps=0.4 q=44.8 size=     512KiB time=00:00:01.48 bitrate=2834.2kbits/s speed=0.00823x elapsed=0:02:59.90    \nframe=   76 fps=0.4 q=44.8 size=     512KiB time=00:00:01.48 bitrate=2834.2kbits/s speed=0.0082x elapsed=0:03:00.52    \nframe=   76 fps=0.4 q=44.8 size=     512KiB time=00:00:01.48 bitrate=2834.2kbits/s speed=0.00817x elapsed=0:03:01.11    \nframe=   76 fps=0.4 q=44.8 size=     512KiB time=00:00:01.48 bitrate=2834.2kbits/s speed=0.00815x elapsed=0:03:01.67    \nframe=   76 fps=0.4 q=44.8 size=     512KiB time=00:00:01.48 bitrate=2834.2kbits/s speed=0.00812x elapsed=0:03:02.28    \nframe=   77 fps=0.4 q=45.0 size=     512KiB time=00:00:01.50 bitrate=2796.4kbits/s speed=0.0082x elapsed=0:03:02.81    \nframe=   77 fps=0.4 q=45.0 size=     512KiB time=00:00:01.50 bitrate=2796.4kbits/s speed=0.00818x elapsed=0:03:03.37    \nframe=   77 fps=0.4 q=45.0 size=     512KiB time=00:00:01.50 bitrate=2796.4kbits/s speed=0.00815x elapsed=0:03:03.94    \nframe=   77 fps=0.4 q=45.0 size=     512KiB time=00:00:01.50 bitrate=2796.4kbits/s speed=0.00813x elapsed=0:03:04.47    \nframe=   77 fps=0.4 q=45.0 size=     512KiB time=00:00:01.50 bitrate=2796.4kbits/s speed=0.00811x elapsed=0:03:05.04    \nframe=   78 fps=0.4 q=39.9 size=     512KiB time=00:00:01.52 bitrate=2759.6kbits/s speed=0.00819x elapsed=0:03:05.62    \nframe=   78 fps=0.4 q=39.9 size=     512KiB time=00:00:01.52 bitrate=2759.6kbits/s speed=0.00817x elapsed=0:03:06.14    \nframe=   78 fps=0.4 q=39.9 size=     512KiB time=00:00:01.52 bitrate=2759.6kbits/s speed=0.00814x elapsed=0:03:06.66    \nframe=   79 fps=0.4 q=42.2 size=     512KiB time=00:00:01.54 bitrate=2723.8kbits/s speed=0.00823x elapsed=0:03:07.20    \nframe=   79 fps=0.4 q=42.2 size=     512KiB time=00:00:01.54 bitrate=2723.8kbits/s speed=0.0082x elapsed=0:03:07.76    \nframe=   79 fps=0.4 q=42.2 size=     512KiB time=00:00:01.54 bitrate=2723.8kbits/s speed=0.00818x elapsed=0:03:08.30    \nframe=   79 fps=0.4 q=42.2 size=     512KiB time=00:00:01.54 bitrate=2723.8kbits/s speed=0.00815x elapsed=0:03:08.87    \nframe=   79 fps=0.4 q=42.2 size=     512KiB time=00:00:01.54 bitrate=2723.8kbits/s speed=0.00813x elapsed=0:03:09.41    \nframe=   79 fps=0.4 q=42.2 size=     512KiB time=00:00:01.54 bitrate=2723.8kbits/s speed=0.00811x elapsed=0:03:09.95    \nframe=   79 fps=0.4 q=42.2 size=     512KiB time=00:00:01.54 bitrate=2723.8kbits/s speed=0.00808x elapsed=0:03:10.53    \nframe=   79 fps=0.4 q=42.2 size=     512KiB time=00:00:01.54 bitrate=2723.8kbits/s speed=0.00806x elapsed=0:03:11.04    \nframe=   79 fps=0.4 q=42.2 size=     512KiB time=00:00:01.54 bitrate=2723.8kbits/s speed=0.00804x elapsed=0:03:11.59    \nframe=   79 fps=0.4 q=42.2 size=     512KiB time=00:00:01.54 bitrate=2723.8kbits/s speed=0.00801x elapsed=0:03:12.16    \nframe=   79 fps=0.4 q=42.2 size=     512KiB time=00:00:01.54 bitrate=2723.8kbits/s speed=0.00799x elapsed=0:03:12.72    \nframe=   79 fps=0.4 q=42.2 size=     512KiB time=00:00:01.54 bitrate=2723.8kbits/s speed=0.00797x elapsed=0:03:13.30    \nframe=   79 fps=0.4 q=42.2 size=     512KiB time=00:00:01.54 bitrate=2723.8kbits/s speed=0.00794x elapsed=0:03:13.83    \nframe=   79 fps=0.4 q=42.2 size=     512KiB time=00:00:01.54 bitrate=2723.8kbits/s speed=0.00792x elapsed=0:03:14.36    \nframe=   79 fps=0.4 q=42.2 size=     512KiB time=00:00:01.54 bitrate=2723.8kbits/s speed=0.0079x elapsed=0:03:14.93    \nframe=   79 fps=0.4 q=42.2 size=     512KiB time=00:00:01.54 bitrate=2723.8kbits/s speed=0.00788x elapsed=0:03:15.53    \nframe=   79 fps=0.4 q=42.2 size=     512KiB time=00:00:01.54 bitrate=2723.8kbits/s speed=0.00785x elapsed=0:03:16.08    \nframe=   80 fps=0.4 q=44.7 size=     512KiB time=00:00:01.56 bitrate=2688.9kbits/s speed=0.00793x elapsed=0:03:16.61    \nframe=   80 fps=0.4 q=44.7 size=     512KiB time=00:00:01.56 bitrate=2688.9kbits/s speed=0.00791x elapsed=0:03:17.14    \nframe=   80 fps=0.4 q=44.7 size=     512KiB time=00:00:01.56 bitrate=2688.9kbits/s speed=0.00789x elapsed=0:03:17.66    \nframe=   80 fps=0.4 q=44.7 size=     512KiB time=00:00:01.56 bitrate=2688.9kbits/s speed=0.00787x elapsed=0:03:18.19    \nframe=   80 fps=0.4 q=44.7 size=     512KiB time=00:00:01.56 bitrate=2688.9kbits/s speed=0.00785x elapsed=0:03:18.75    \nframe=   80 fps=0.4 q=44.7 size=     512KiB time=00:00:01.56 bitrate=2688.9kbits/s speed=0.00783x elapsed=0:03:19.30    \nframe=   80 fps=0.4 q=44.7 size=     512KiB time=00:00:01.56 bitrate=2688.9kbits/s speed=0.00781x elapsed=0:03:19.84    \nframe=   80 fps=0.4 q=44.7 size=     512KiB time=00:00:01.56 bitrate=2688.9kbits/s speed=0.00778x elapsed=0:03:20.39    \nframe=   80 fps=0.4 q=44.7 size=     512KiB time=00:00:01.56 bitrate=2688.9kbits/s speed=0.00776x elapsed=0:03:20.97    \nframe=   81 fps=0.4 q=44.7 size=     512KiB time=00:00:01.58 bitrate=2654.8kbits/s speed=0.00784x elapsed=0:03:21.53    \nframe=   81 fps=0.4 q=44.7 size=     512KiB time=00:00:01.58 bitrate=2654.8kbits/s speed=0.00782x elapsed=0:03:22.09    \nframe=   81 fps=0.4 q=44.7 size=     512KiB time=00:00:01.58 bitrate=2654.8kbits/s speed=0.00779x elapsed=0:03:22.70    \nframe=   81 fps=0.4 q=44.7 size=     512KiB time=00:00:01.58 bitrate=2654.8kbits/s speed=0.00777x elapsed=0:03:23.27    \nframe=   82 fps=0.4 q=39.6 size=     512KiB time=00:00:01.60 bitrate=2621.7kbits/s speed=0.00785x elapsed=0:03:23.79    \nframe=   82 fps=0.4 q=39.6 size=     512KiB time=00:00:01.60 bitrate=2621.7kbits/s speed=0.00783x elapsed=0:03:24.30    \nframe=   82 fps=0.4 q=39.6 size=     512KiB time=00:00:01.60 bitrate=2621.7kbits/s speed=0.00781x elapsed=0:03:24.82    \nframe=   82 fps=0.4 q=39.6 size=     512KiB time=00:00:01.60 bitrate=2621.7kbits/s speed=0.00779x elapsed=0:03:25.37    \nframe=   83 fps=0.4 q=42.3 size=     512KiB time=00:00:01.62 bitrate=2589.3kbits/s speed=0.00787x elapsed=0:03:25.88    \nframe=   83 fps=0.4 q=42.3 size=     512KiB time=00:00:01.62 bitrate=2589.3kbits/s speed=0.00785x elapsed=0:03:26.39    \nframe=   83 fps=0.4 q=42.3 size=     512KiB time=00:00:01.62 bitrate=2589.3kbits/s speed=0.00783x elapsed=0:03:26.91    \nframe=   83 fps=0.4 q=42.3 size=     512KiB time=00:00:01.62 bitrate=2589.3kbits/s speed=0.00781x elapsed=0:03:27.48    \nframe=   83 fps=0.4 q=42.3 size=     512KiB time=00:00:01.62 bitrate=2589.3kbits/s speed=0.00778x elapsed=0:03:28.10    \nframe=   83 fps=0.4 q=42.3 size=     512KiB time=00:00:01.62 bitrate=2589.3kbits/s speed=0.00776x elapsed=0:03:28.67    \nframe=   83 fps=0.4 q=42.3 size=     512KiB time=00:00:01.62 bitrate=2589.3kbits/s speed=0.00774x elapsed=0:03:29.25    \nframe=   83 fps=0.4 q=42.3 size=     512KiB time=00:00:01.62 bitrate=2589.3kbits/s speed=0.00772x elapsed=0:03:29.86    \nframe=   83 fps=0.4 q=42.3 size=     512KiB time=00:00:01.62 bitrate=2589.3kbits/s speed=0.0077x elapsed=0:03:30.48    \nframe=   83 fps=0.4 q=42.3 size=     512KiB time=00:00:01.62 bitrate=2589.3kbits/s speed=0.00768x elapsed=0:03:31.00    \nframe=   84 fps=0.4 q=44.4 size=     512KiB time=00:00:01.64 bitrate=2557.7kbits/s speed=0.00775x elapsed=0:03:31.55    \nframe=   84 fps=0.4 q=44.4 size=     512KiB time=00:00:01.64 bitrate=2557.7kbits/s speed=0.00773x elapsed=0:03:32.15    \nframe=   84 fps=0.4 q=44.4 size=     512KiB time=00:00:01.64 bitrate=2557.7kbits/s speed=0.00771x elapsed=0:03:32.69    \nframe=   84 fps=0.4 q=44.4 size=     512KiB time=00:00:01.64 bitrate=2557.7kbits/s speed=0.00769x elapsed=0:03:33.23    \nframe=   84 fps=0.4 q=44.4 size=     512KiB time=00:00:01.64 bitrate=2557.7kbits/s speed=0.00767x elapsed=0:03:33.77    \nframe=   84 fps=0.4 q=44.4 size=     512KiB time=00:00:01.64 bitrate=2557.7kbits/s speed=0.00765x elapsed=0:03:34.33    \nframe=   84 fps=0.4 q=44.4 size=     512KiB time=00:00:01.64 bitrate=2557.7kbits/s speed=0.00763x elapsed=0:03:34.89    \nframe=   84 fps=0.4 q=44.4 size=     512KiB time=00:00:01.64 bitrate=2557.7kbits/s speed=0.00761x elapsed=0:03:35.41    \nframe=   84 fps=0.4 q=44.4 size=     512KiB time=00:00:01.64 bitrate=2557.7kbits/s speed=0.00759x elapsed=0:03:35.95    \nframe=   85 fps=0.4 q=44.4 size=     512KiB time=00:00:01.66 bitrate=2526.9kbits/s speed=0.00767x elapsed=0:03:36.47    \nframe=   85 fps=0.4 q=44.4 size=     512KiB time=00:00:01.66 bitrate=2526.9kbits/s speed=0.00765x elapsed=0:03:37.00    \nframe=   85 fps=0.4 q=44.4 size=     512KiB time=00:00:01.66 bitrate=2526.9kbits/s speed=0.00763x elapsed=0:03:37.57    \nframe=   85 fps=0.4 q=44.4 size=     512KiB time=00:00:01.66 bitrate=2526.9kbits/s speed=0.00761x elapsed=0:03:38.11    \nframe=   85 fps=0.4 q=44.4 size=     512KiB time=00:00:01.66 bitrate=2526.9kbits/s speed=0.00759x elapsed=0:03:38.65    \nframe=   85 fps=0.4 q=44.4 size=     512KiB time=00:00:01.66 bitrate=2526.9kbits/s speed=0.00757x elapsed=0:03:39.18    \nframe=   85 fps=0.4 q=44.4 size=     512KiB time=00:00:01.66 bitrate=2526.9kbits/s speed=0.00756x elapsed=0:03:39.71    \nframe=   86 fps=0.4 q=39.5 size=     512KiB time=00:00:01.68 bitrate=2496.8kbits/s speed=0.00763x elapsed=0:03:40.26    \nframe=   86 fps=0.4 q=39.5 size=     512KiB time=00:00:01.68 bitrate=2496.8kbits/s speed=0.00761x elapsed=0:03:40.86    \nframe=   86 fps=0.4 q=39.5 size=     512KiB time=00:00:01.68 bitrate=2496.8kbits/s speed=0.00759x elapsed=0:03:41.46    \nframe=   86 fps=0.4 q=39.5 size=     512KiB time=00:00:01.68 bitrate=2496.8kbits/s speed=0.00757x elapsed=0:03:42.04    \nframe=   86 fps=0.4 q=39.5 size=     512KiB time=00:00:01.68 bitrate=2496.8kbits/s speed=0.00755x elapsed=0:03:42.61    \nframe=   86 fps=0.4 q=39.5 size=     512KiB time=00:00:01.68 bitrate=2496.8kbits/s speed=0.00753x elapsed=0:03:43.13    \nframe=   86 fps=0.4 q=39.5 size=     512KiB time=00:00:01.68 bitrate=2496.8kbits/s speed=0.00751x elapsed=0:03:43.65    \nframe=   87 fps=0.4 q=42.0 size=     512KiB time=00:00:01.70 bitrate=2467.4kbits/s speed=0.00758x elapsed=0:03:44.18    \nframe=   87 fps=0.4 q=42.0 size=     512KiB time=00:00:01.70 bitrate=2467.4kbits/s speed=0.00756x elapsed=0:03:44.75    \nframe=   87 fps=0.4 q=42.0 size=     512KiB time=00:00:01.70 bitrate=2467.4kbits/s speed=0.00755x elapsed=0:03:45.31    \nframe=   87 fps=0.4 q=42.0 size=     512KiB time=00:00:01.70 bitrate=2467.4kbits/s speed=0.00753x elapsed=0:03:45.86    \nframe=   87 fps=0.4 q=42.0 size=     512KiB time=00:00:01.70 bitrate=2467.4kbits/s speed=0.00751x elapsed=0:03:46.40    \nframe=   87 fps=0.4 q=42.0 size=     512KiB time=00:00:01.70 bitrate=2467.4kbits/s speed=0.00749x elapsed=0:03:46.93    \nframe=   87 fps=0.4 q=42.0 size=     512KiB time=00:00:01.70 bitrate=2467.4kbits/s speed=0.00747x elapsed=0:03:47.47    \nframe=   87 fps=0.4 q=42.0 size=     512KiB time=00:00:01.70 bitrate=2467.4kbits/s speed=0.00746x elapsed=0:03:48.02    \nframe=   87 fps=0.4 q=42.0 size=     512KiB time=00:00:01.70 bitrate=2467.4kbits/s speed=0.00744x elapsed=0:03:48.61    \nframe=   87 fps=0.4 q=42.0 size=     512KiB time=00:00:01.70 bitrate=2467.4kbits/s speed=0.00742x elapsed=0:03:49.18    \nframe=   88 fps=0.4 q=44.3 size=     512KiB time=00:00:01.72 bitrate=2438.8kbits/s speed=0.00749x elapsed=0:03:49.74    \nframe=   88 fps=0.4 q=44.3 size=     512KiB time=00:00:01.72 bitrate=2438.8kbits/s speed=0.00747x elapsed=0:03:50.26    \nframe=   88 fps=0.4 q=44.3 size=     512KiB time=00:00:01.72 bitrate=2438.8kbits/s speed=0.00745x elapsed=0:03:50.81    \nframe=   89 fps=0.4 q=44.4 size=     512KiB time=00:00:01.72 bitrate=2438.8kbits/s speed=0.00743x elapsed=0:03:51.38    \nframe=   90 fps=0.4 q=39.3 size=     512KiB time=00:00:01.74 bitrate=2410.7kbits/s speed=0.0075x elapsed=0:03:51.95    \nframe=   90 fps=0.4 q=39.3 size=     512KiB time=00:00:01.76 bitrate=2383.3kbits/s speed=0.00757x elapsed=0:03:52.49    \nframe=   90 fps=0.4 q=39.3 size=     512KiB time=00:00:01.76 bitrate=2383.3kbits/s speed=0.00755x elapsed=0:03:53.00    \nframe=   91 fps=0.4 q=42.0 size=     512KiB time=00:00:01.78 bitrate=2356.5kbits/s speed=0.00762x elapsed=0:03:53.55    \nframe=   91 fps=0.4 q=42.0 size=     512KiB time=00:00:01.78 bitrate=2356.5kbits/s speed=0.0076x elapsed=0:03:54.07    \nframe=   91 fps=0.4 q=42.0 size=     512KiB time=00:00:01.78 bitrate=2356.5kbits/s speed=0.00759x elapsed=0:03:54.62    \nframe=   91 fps=0.4 q=42.0 size=     512KiB time=00:00:01.78 bitrate=2356.5kbits/s speed=0.00757x elapsed=0:03:55.13    \nframe=   92 fps=0.4 q=44.3 size=     512KiB time=00:00:01.80 bitrate=2330.4kbits/s speed=0.00764x elapsed=0:03:55.65    \nframe=   92 fps=0.4 q=44.3 size=     512KiB time=00:00:01.80 bitrate=2330.4kbits/s speed=0.00762x elapsed=0:03:56.21    \nframe=   92 fps=0.4 q=44.3 size=     512KiB time=00:00:01.80 bitrate=2330.4kbits/s speed=0.0076x elapsed=0:03:56.74    \nframe=   92 fps=0.4 q=44.3 size=     512KiB time=00:00:01.80 bitrate=2330.4kbits/s speed=0.00759x elapsed=0:03:57.27    \nframe=   92 fps=0.4 q=44.3 size=     512KiB time=00:00:01.80 bitrate=2330.4kbits/s speed=0.00757x elapsed=0:03:57.79    \nframe=   93 fps=0.4 q=44.2 size=     512KiB time=00:00:01.82 bitrate=2304.8kbits/s speed=0.00764x elapsed=0:03:58.31    \nframe=   93 fps=0.4 q=44.2 size=     512KiB time=00:00:01.82 bitrate=2304.8kbits/s speed=0.00762x elapsed=0:03:58.81    \nframe=   94 fps=0.4 q=38.8 size=     512KiB time=00:00:01.84 bitrate=2279.7kbits/s speed=0.00769x elapsed=0:03:59.33    \nframe=   94 fps=0.4 q=38.8 size=     512KiB time=00:00:01.84 bitrate=2279.7kbits/s speed=0.00767x elapsed=0:03:59.86    \nframe=   95 fps=0.4 q=42.9 size=     512KiB time=00:00:01.86 bitrate=2255.2kbits/s speed=0.00774x elapsed=0:04:00.37    \nframe=   95 fps=0.4 q=42.9 size=     512KiB time=00:00:01.86 bitrate=2255.2kbits/s speed=0.00772x elapsed=0:04:00.89    \nframe=   96 fps=0.4 q=44.3 size=     512KiB time=00:00:01.88 bitrate=2231.2kbits/s speed=0.00779x elapsed=0:04:01.41    \nframe=   96 fps=0.4 q=44.3 size=     512KiB time=00:00:01.88 bitrate=2231.2kbits/s speed=0.00777x elapsed=0:04:01.93    \nframe=   96 fps=0.4 q=44.3 size=     512KiB time=00:00:01.88 bitrate=2231.2kbits/s speed=0.00775x elapsed=0:04:02.44    \nframe=   96 fps=0.4 q=44.3 size=     512KiB time=00:00:01.88 bitrate=2231.2kbits/s speed=0.00774x elapsed=0:04:02.96    \nframe=   97 fps=0.4 q=44.4 size=     512KiB time=00:00:01.90 bitrate=2207.7kbits/s speed=0.0078x elapsed=0:04:03.49    \nframe=   97 fps=0.4 q=44.4 size=     512KiB time=00:00:01.90 bitrate=2207.7kbits/s speed=0.00779x elapsed=0:04:04.01    \nframe=   98 fps=0.4 q=44.3 size=     512KiB time=00:00:01.92 bitrate=2184.7kbits/s speed=0.00785x elapsed=0:04:04.54    \nframe=   98 fps=0.4 q=44.3 size=     512KiB time=00:00:01.92 bitrate=2184.7kbits/s speed=0.00784x elapsed=0:04:05.05    \nframe=  100 fps=0.4 q=39.9 size=     512KiB time=00:00:01.96 bitrate=2140.1kbits/s speed=0.00798x elapsed=0:04:05.58    \nframe=  100 fps=0.4 q=39.9 size=     512KiB time=00:00:01.96 bitrate=2140.1kbits/s speed=0.00796x elapsed=0:04:06.10    \nframe=  100 fps=0.4 q=39.9 size=     512KiB time=00:00:01.96 bitrate=2140.1kbits/s speed=0.00795x elapsed=0:04:06.62    \nframe=  102 fps=0.4 q=44.8 size=     512KiB time=00:00:02.00 bitrate=2097.3kbits/s speed=0.00809x elapsed=0:04:07.14    \nframe=  102 fps=0.4 q=44.8 size=     512KiB time=00:00:02.00 bitrate=2097.3kbits/s speed=0.00807x elapsed=0:04:07.67    \nframe=  102 fps=0.4 q=44.8 size=     512KiB time=00:00:02.00 bitrate=2097.3kbits/s speed=0.00806x elapsed=0:04:08.20    \nframe=  103 fps=0.4 q=45.0 size=     512KiB time=00:00:02.02 bitrate=2076.6kbits/s speed=0.00812x elapsed=0:04:08.72    \nframe=  104 fps=0.4 q=38.7 size=     512KiB time=00:00:02.04 bitrate=2056.2kbits/s speed=0.00818x elapsed=0:04:09.24    \nframe=  104 fps=0.4 q=38.7 size=     512KiB time=00:00:02.04 bitrate=2056.2kbits/s speed=0.00817x elapsed=0:04:09.76    \nframe=  105 fps=0.4 q=42.1 size=     768KiB time=00:00:02.06 bitrate=3054.3kbits/s speed=0.00823x elapsed=0:04:10.29    \nframe=  106 fps=0.4 q=44.7 size=     768KiB time=00:00:02.08 bitrate=3024.9kbits/s speed=0.00829x elapsed=0:04:10.83    \nframe=  107 fps=0.4 q=45.1 size=     768KiB time=00:00:02.10 bitrate=2996.1kbits/s speed=0.00835x elapsed=0:04:11.35    \nframe=  108 fps=0.4 q=45.4 size=     768KiB time=00:00:02.12 bitrate=2967.8kbits/s speed=0.00842x elapsed=0:04:11.87    \nframe=  108 fps=0.4 q=45.4 size=     768KiB time=00:00:02.12 bitrate=2967.8kbits/s speed=0.0084x elapsed=0:04:12.40    \nframe=  108 fps=0.4 q=45.4 size=     768KiB time=00:00:02.12 bitrate=2967.8kbits/s speed=0.00838x elapsed=0:04:12.93    \nframe=  109 fps=0.4 q=38.5 size=     768KiB time=00:00:02.14 bitrate=2940.1kbits/s speed=0.00844x elapsed=0:04:13.45    \nframe=  110 fps=0.4 q=42.7 size=     768KiB time=00:00:02.16 bitrate=2912.9kbits/s speed=0.0085x elapsed=0:04:13.97    \nframe=  110 fps=0.4 q=42.7 size=     768KiB time=00:00:02.16 bitrate=2912.9kbits/s speed=0.00849x elapsed=0:04:14.49    \nframe=  111 fps=0.4 q=44.8 size=     768KiB time=00:00:02.18 bitrate=2886.2kbits/s speed=0.00855x elapsed=0:04:15.01    \nframe=  112 fps=0.4 q=45.4 size=     768KiB time=00:00:02.20 bitrate=2859.9kbits/s speed=0.00861x elapsed=0:04:15.52    \nframe=  112 fps=0.4 q=45.4 size=     768KiB time=00:00:02.20 bitrate=2859.9kbits/s speed=0.00859x elapsed=0:04:16.06    \nframe=  112 fps=0.4 q=45.4 size=     768KiB time=00:00:02.20 bitrate=2859.9kbits/s speed=0.00857x elapsed=0:04:16.59    \nframe=  112 fps=0.4 q=45.4 size=     768KiB time=00:00:02.20 bitrate=2859.9kbits/s speed=0.00856x elapsed=0:04:17.12    \nframe=  113 fps=0.4 q=38.6 size=     768KiB time=00:00:02.22 bitrate=2834.1kbits/s speed=0.00862x elapsed=0:04:17.66    \nframe=  113 fps=0.4 q=38.6 size=     768KiB time=00:00:02.22 bitrate=2834.1kbits/s speed=0.0086x elapsed=0:04:18.19    \nframe=  113 fps=0.4 q=38.6 size=     768KiB time=00:00:02.22 bitrate=2834.1kbits/s speed=0.00858x elapsed=0:04:18.75    \nframe=  113 fps=0.4 q=38.6 size=     768KiB time=00:00:02.22 bitrate=2834.1kbits/s speed=0.00856x elapsed=0:04:19.28    \nframe=  113 fps=0.4 q=38.6 size=     768KiB time=00:00:02.22 bitrate=2834.1kbits/s speed=0.00854x elapsed=0:04:19.82    \nframe=  114 fps=0.4 q=42.8 size=     768KiB time=00:00:02.24 bitrate=2808.8kbits/s speed=0.0086x elapsed=0:04:20.35    \nframe=  114 fps=0.4 q=42.8 size=     768KiB time=00:00:02.24 bitrate=2808.8kbits/s speed=0.00859x elapsed=0:04:20.89    \nframe=  115 fps=0.4 q=44.8 size=     768KiB time=00:00:02.26 bitrate=2784.0kbits/s speed=0.00865x elapsed=0:04:21.41    \nframe=  117 fps=0.4 q=38.5 size=     768KiB time=00:00:02.30 bitrate=2735.6kbits/s speed=0.00878x elapsed=0:04:21.92    \nframe=  117 fps=0.4 q=38.5 size=     768KiB time=00:00:02.30 bitrate=2735.6kbits/s speed=0.00876x elapsed=0:04:22.44    \nframe=  118 fps=0.4 q=42.8 size=     768KiB time=00:00:02.32 bitrate=2712.0kbits/s speed=0.00882x elapsed=0:04:22.96    \nframe=  118 fps=0.4 q=42.8 size=     768KiB time=00:00:02.32 bitrate=2712.0kbits/s speed=0.00881x elapsed=0:04:23.47    \nframe=  119 fps=0.5 q=44.8 size=     768KiB time=00:00:02.34 bitrate=2688.8kbits/s speed=0.00886x elapsed=0:04:23.99    \nframe=  120 fps=0.5 q=45.6 size=     768KiB time=00:00:02.36 bitrate=2666.0kbits/s speed=0.00892x elapsed=0:04:24.50    \nframe=  120 fps=0.5 q=45.6 size=     768KiB time=00:00:02.36 bitrate=2666.0kbits/s speed=0.0089x elapsed=0:04:25.03    \nframe=  120 fps=0.5 q=45.6 size=     768KiB time=00:00:02.36 bitrate=2666.0kbits/s speed=0.00889x elapsed=0:04:25.55    \nframe=  122 fps=0.5 q=42.7 size=     768KiB time=00:00:02.40 bitrate=2621.6kbits/s speed=0.00902x elapsed=0:04:26.07    \nframe=  122 fps=0.5 q=42.7 size=     768KiB time=00:00:02.40 bitrate=2621.6kbits/s speed=0.009x elapsed=0:04:26.58    \nframe=  122 fps=0.5 q=42.7 size=     768KiB time=00:00:02.40 bitrate=2621.6kbits/s speed=0.00899x elapsed=0:04:27.09    \nframe=  123 fps=0.5 q=44.8 size=     768KiB time=00:00:02.42 bitrate=2599.9kbits/s speed=0.00904x elapsed=0:04:27.62    \nframe=  124 fps=0.5 q=45.5 size=     768KiB time=00:00:02.44 bitrate=2578.6kbits/s speed=0.0091x elapsed=0:04:28.13    \nframe=  124 fps=0.5 q=45.5 size=     768KiB time=00:00:02.44 bitrate=2578.6kbits/s speed=0.00908x elapsed=0:04:28.66    \nframe=  125 fps=0.5 q=38.4 size=     768KiB time=00:00:02.46 bitrate=2557.6kbits/s speed=0.00914x elapsed=0:04:29.19    \nframe=  125 fps=0.5 q=38.4 size=     768KiB time=00:00:02.46 bitrate=2557.6kbits/s speed=0.00912x elapsed=0:04:29.72    \nframe=  126 fps=0.5 q=42.7 size=     768KiB time=00:00:02.48 bitrate=2537.0kbits/s speed=0.00918x elapsed=0:04:30.22    \nframe=  126 fps=0.5 q=42.7 size=     768KiB time=00:00:02.48 bitrate=2537.0kbits/s speed=0.00916x elapsed=0:04:30.77    \nframe=  127 fps=0.5 q=44.9 size=     768KiB time=00:00:02.50 bitrate=2516.7kbits/s speed=0.00921x elapsed=0:04:31.29    \nframe=  127 fps=0.5 q=44.9 size=     768KiB time=00:00:02.50 bitrate=2516.7kbits/s speed=0.0092x elapsed=0:04:31.82    \nframe=  128 fps=0.5 q=45.6 size=     768KiB time=00:00:02.52 bitrate=2496.7kbits/s speed=0.00925x elapsed=0:04:32.35    \nframe=  129 fps=0.5 q=38.5 size=     768KiB time=00:00:02.54 bitrate=2477.1kbits/s speed=0.00931x elapsed=0:04:32.87    \nframe=  129 fps=0.5 q=38.5 size=     768KiB time=00:00:02.54 bitrate=2477.1kbits/s speed=0.00929x elapsed=0:04:33.41    \nframe=  130 fps=0.5 q=43.6 size=     768KiB time=00:00:02.56 bitrate=2457.7kbits/s speed=0.00935x elapsed=0:04:33.93    \nframe=  131 fps=0.5 q=44.6 size=     768KiB time=00:00:02.58 bitrate=2438.7kbits/s speed=0.0094x elapsed=0:04:34.45    \nframe=  132 fps=0.5 q=45.3 size=     768KiB time=00:00:02.60 bitrate=2419.9kbits/s speed=0.00946x elapsed=0:04:34.96    \nframe=  133 fps=0.5 q=45.6 size=     768KiB time=00:00:02.62 bitrate=2401.5kbits/s speed=0.00951x elapsed=0:04:35.48    \nframe=  133 fps=0.5 q=45.6 size=     768KiB time=00:00:02.62 bitrate=2401.5kbits/s speed=0.00949x elapsed=0:04:36.03    \nframe=  134 fps=0.5 q=38.4 size=     768KiB time=00:00:02.64 bitrate=2383.3kbits/s speed=0.00955x elapsed=0:04:36.55    \nframe=  134 fps=0.5 q=38.4 size=     768KiB time=00:00:02.64 bitrate=2383.3kbits/s speed=0.00953x elapsed=0:04:37.08    \nframe=  136 fps=0.5 q=44.8 size=     768KiB time=00:00:02.68 bitrate=2347.7kbits/s speed=0.00965x elapsed=0:04:37.61    \nframe=  136 fps=0.5 q=44.8 size=     768KiB time=00:00:02.68 bitrate=2347.7kbits/s speed=0.00964x elapsed=0:04:38.13    \nframe=  137 fps=0.5 q=44.8 size=     768KiB time=00:00:02.70 bitrate=2330.3kbits/s speed=0.00969x elapsed=0:04:38.65    \nframe=  138 fps=0.5 q=38.5 size=     768KiB time=00:00:02.72 bitrate=2313.2kbits/s speed=0.00974x elapsed=0:04:39.16    \nframe=  139 fps=0.5 q=42.5 size=     768KiB time=00:00:02.74 bitrate=2296.3kbits/s speed=0.0098x elapsed=0:04:39.68    \nframe=  139 fps=0.5 q=42.5 size=     768KiB time=00:00:02.74 bitrate=2296.3kbits/s speed=0.00978x elapsed=0:04:40.20    \nframe=  141 fps=0.5 q=44.8 size=    1024KiB time=00:00:02.78 bitrate=3017.6kbits/s speed=0.0099x elapsed=0:04:40.72    \nframe=  141 fps=0.5 q=44.8 size=    1024KiB time=00:00:02.78 bitrate=3017.6kbits/s speed=0.00988x elapsed=0:04:41.23    \nframe=  142 fps=0.5 q=38.6 size=    1024KiB time=00:00:02.80 bitrate=2996.1kbits/s speed=0.00994x elapsed=0:04:41.76    \nframe=  143 fps=0.5 q=43.5 size=    1024KiB time=00:00:02.82 bitrate=2974.8kbits/s speed=0.00999x elapsed=0:04:42.28    \nframe=  144 fps=0.5 q=44.9 size=    1024KiB time=00:00:02.84 bitrate=2953.9kbits/s speed=0.01x elapsed=0:04:42.78    \nframe=  144 fps=0.5 q=44.9 size=    1024KiB time=00:00:02.84 bitrate=2953.9kbits/s speed=0.01x elapsed=0:04:43.30    \nframe=  144 fps=0.5 q=44.9 size=    1024KiB time=00:00:02.84 bitrate=2953.9kbits/s speed=0.01x elapsed=0:04:43.81    \nframe=  145 fps=0.5 q=44.8 size=    1024KiB time=00:00:02.86 bitrate=2933.2kbits/s speed=0.0101x elapsed=0:04:44.34    \nframe=  145 fps=0.5 q=44.8 size=    1024KiB time=00:00:02.86 bitrate=2933.2kbits/s speed=0.01x elapsed=0:04:44.84    \nframe=  146 fps=0.5 q=44.7 size=    1024KiB time=00:00:02.88 bitrate=2912.8kbits/s speed=0.0101x elapsed=0:04:45.36    \nframe=  147 fps=0.5 q=38.5 size=    1024KiB time=00:00:02.90 bitrate=2892.7kbits/s speed=0.0101x elapsed=0:04:45.88    \nframe=  148 fps=0.5 q=40.1 size=    1024KiB time=00:00:02.92 bitrate=2872.9kbits/s speed=0.0102x elapsed=0:04:46.39    \nframe=  148 fps=0.5 q=40.1 size=    1024KiB time=00:00:02.92 bitrate=2872.9kbits/s speed=0.0102x elapsed=0:04:46.91    \nframe=  149 fps=0.5 q=44.9 size=    1024KiB time=00:00:02.94 bitrate=2853.4kbits/s speed=0.0102x elapsed=0:04:47.44    \nframe=  149 fps=0.5 q=44.9 size=    1024KiB time=00:00:02.94 bitrate=2853.4kbits/s speed=0.0102x elapsed=0:04:47.95    \nframe=  150 fps=0.5 q=44.6 size=    1024KiB time=00:00:02.96 bitrate=2834.1kbits/s speed=0.0103x elapsed=0:04:48.48    \nframe=  151 fps=0.5 q=45.3 size=    1024KiB time=00:00:02.98 bitrate=2815.1kbits/s speed=0.0103x elapsed=0:04:48.99    \nframe=  152 fps=0.5 q=38.4 size=    1024KiB time=00:00:03.00 bitrate=2796.3kbits/s speed=0.0104x elapsed=0:04:49.50    \nframe=  152 fps=0.5 q=38.4 size=    1024KiB time=00:00:03.00 bitrate=2796.3kbits/s speed=0.0103x elapsed=0:04:50.02    \nframe=  153 fps=0.5 q=43.5 size=    1024KiB time=00:00:03.02 bitrate=2777.8kbits/s speed=0.0104x elapsed=0:04:50.54    \nframe=  154 fps=0.5 q=44.8 size=    1024KiB time=00:00:03.04 bitrate=2759.5kbits/s speed=0.0104x elapsed=0:04:51.07    \nframe=  155 fps=0.5 q=45.2 size=    1024KiB time=00:00:03.06 bitrate=2741.5kbits/s speed=0.0105x elapsed=0:04:51.59    \nframe=  155 fps=0.5 q=45.2 size=    1024KiB time=00:00:03.06 bitrate=2741.5kbits/s speed=0.0105x elapsed=0:04:52.11    \nframe=  156 fps=0.5 q=44.9 size=    1024KiB time=00:00:03.08 bitrate=2723.7kbits/s speed=0.0105x elapsed=0:04:52.61    \nframe=  156 fps=0.5 q=44.9 size=    1024KiB time=00:00:03.08 bitrate=2723.7kbits/s speed=0.0105x elapsed=0:04:53.14    \nframe=  157 fps=0.5 q=38.4 size=    1024KiB time=00:00:03.10 bitrate=2706.1kbits/s speed=0.0106x elapsed=0:04:53.64    \nframe=  158 fps=0.5 q=42.6 size=    1024KiB time=00:00:03.12 bitrate=2688.8kbits/s speed=0.0106x elapsed=0:04:54.16    \nframe=  159 fps=0.5 q=44.7 size=    1024KiB time=00:00:03.14 bitrate=2671.6kbits/s speed=0.0107x elapsed=0:04:54.68    \nframe=  159 fps=0.5 q=44.7 size=    1024KiB time=00:00:03.14 bitrate=2671.6kbits/s speed=0.0106x elapsed=0:04:55.22    \nframe=  160 fps=0.5 q=44.5 size=    1024KiB time=00:00:03.16 bitrate=2654.7kbits/s speed=0.0107x elapsed=0:04:55.72    \nframe=  160 fps=0.5 q=44.5 size=    1024KiB time=00:00:03.16 bitrate=2654.7kbits/s speed=0.0107x elapsed=0:04:56.24    \nframe=  160 fps=0.5 q=44.5 size=    1024KiB time=00:00:03.16 bitrate=2654.7kbits/s speed=0.0106x elapsed=0:04:56.75    \nframe=  161 fps=0.5 q=38.4 size=    1024KiB time=00:00:03.18 bitrate=2638.0kbits/s speed=0.0107x elapsed=0:04:57.27    \nframe=  162 fps=0.5 q=42.7 size=    1024KiB time=00:00:03.20 bitrate=2621.6kbits/s speed=0.0107x elapsed=0:04:57.79    \nframe=  162 fps=0.5 q=42.7 size=    1024KiB time=00:00:03.20 bitrate=2621.6kbits/s speed=0.0107x elapsed=0:04:58.30    \nframe=  163 fps=0.5 q=44.9 size=    1024KiB time=00:00:03.22 bitrate=2605.3kbits/s speed=0.0108x elapsed=0:04:58.84    \nframe=  163 fps=0.5 q=44.9 size=    1024KiB time=00:00:03.22 bitrate=2605.3kbits/s speed=0.0108x elapsed=0:04:59.36    \nframe=  164 fps=0.5 q=44.7 size=    1024KiB time=00:00:03.24 bitrate=2589.2kbits/s speed=0.0108x elapsed=0:04:59.88    \nframe=  164 fps=0.5 q=44.7 size=    1024KiB time=00:00:03.24 bitrate=2589.2kbits/s speed=0.0108x elapsed=0:05:00.41    \nframe=  165 fps=0.5 q=38.4 size=    1024KiB time=00:00:03.26 bitrate=2573.3kbits/s speed=0.0108x elapsed=0:05:00.92    \nframe=  165 fps=0.5 q=38.4 size=    1024KiB time=00:00:03.26 bitrate=2573.3kbits/s speed=0.0108x elapsed=0:05:01.45    \nframe=  166 fps=0.5 q=42.6 size=    1024KiB time=00:00:03.28 bitrate=2557.6kbits/s speed=0.0109x elapsed=0:05:01.97    \nframe=  166 fps=0.5 q=42.6 size=    1024KiB time=00:00:03.28 bitrate=2557.6kbits/s speed=0.0108x elapsed=0:05:02.52    \nframe=  166 fps=0.5 q=42.6 size=    1024KiB time=00:00:03.28 bitrate=2557.6kbits/s speed=0.0108x elapsed=0:05:03.03    \nframe=  167 fps=0.6 q=45.0 size=    1024KiB time=00:00:03.30 bitrate=2542.1kbits/s speed=0.0109x elapsed=0:05:03.57    \nframe=  167 fps=0.5 q=45.0 size=    1024KiB time=00:00:03.30 bitrate=2542.1kbits/s speed=0.0109x elapsed=0:05:04.10    \nframe=  168 fps=0.6 q=45.4 size=    1024KiB time=00:00:03.32 bitrate=2526.8kbits/s speed=0.0109x elapsed=0:05:04.65    \nframe=  168 fps=0.6 q=45.4 size=    1024KiB time=00:00:03.32 bitrate=2526.8kbits/s speed=0.0109x elapsed=0:05:05.17    \nframe=  168 fps=0.5 q=45.4 size=    1024KiB time=00:00:03.32 bitrate=2526.8kbits/s speed=0.0109x elapsed=0:05:05.78    \nframe=  168 fps=0.5 q=45.4 size=    1024KiB time=00:00:03.32 bitrate=2526.8kbits/s speed=0.0108x elapsed=0:05:06.36    \nframe=  169 fps=0.6 q=38.5 size=    1024KiB time=00:00:03.34 bitrate=2511.7kbits/s speed=0.0109x elapsed=0:05:06.90    \nframe=  170 fps=0.6 q=42.5 size=    1024KiB time=00:00:03.36 bitrate=2496.7kbits/s speed=0.0109x elapsed=0:05:07.45    \nframe=  170 fps=0.6 q=42.5 size=    1024KiB time=00:00:03.36 bitrate=2496.7kbits/s speed=0.0109x elapsed=0:05:07.97    \nframe=  171 fps=0.6 q=45.0 size=    1024KiB time=00:00:03.38 bitrate=2481.9kbits/s speed=0.011x elapsed=0:05:08.49    \nframe=  172 fps=0.6 q=45.1 size=    1024KiB time=00:00:03.40 bitrate=2467.3kbits/s speed=0.011x elapsed=0:05:09.02    \nframe=  173 fps=0.6 q=38.4 size=    1024KiB time=00:00:03.42 bitrate=2452.9kbits/s speed=0.011x elapsed=0:05:09.54    \nframe=  173 fps=0.6 q=38.4 size=    1024KiB time=00:00:03.42 bitrate=2452.9kbits/s speed=0.011x elapsed=0:05:10.07    \nframe=  174 fps=0.6 q=42.5 size=    1280KiB time=00:00:03.44 bitrate=3048.3kbits/s speed=0.0111x elapsed=0:05:10.58    \nframe=  175 fps=0.6 q=45.0 size=    1280KiB time=00:00:03.46 bitrate=3030.7kbits/s speed=0.0111x elapsed=0:05:11.09    \nframe=  175 fps=0.6 q=45.0 size=    1280KiB time=00:00:03.46 bitrate=3030.7kbits/s speed=0.0111x elapsed=0:05:11.64    \nframe=  176 fps=0.6 q=45.5 size=    1280KiB time=00:00:03.48 bitrate=3013.3kbits/s speed=0.0111x elapsed=0:05:12.16    \nframe=  177 fps=0.6 q=38.4 size=    1280KiB time=00:00:03.50 bitrate=2996.0kbits/s speed=0.0112x elapsed=0:05:12.68    \nframe=  178 fps=0.6 q=42.4 size=    1280KiB time=00:00:03.52 bitrate=2979.0kbits/s speed=0.0112x elapsed=0:05:13.19    \nframe=  178 fps=0.6 q=42.4 size=    1280KiB time=00:00:03.52 bitrate=2979.0kbits/s speed=0.0112x elapsed=0:05:13.71    \nframe=  179 fps=0.6 q=44.8 size=    1280KiB time=00:00:03.54 bitrate=2962.2kbits/s speed=0.0113x elapsed=0:05:14.23    \nframe=  180 fps=0.6 q=45.5 size=    1280KiB time=00:00:03.56 bitrate=2945.5kbits/s speed=0.0113x elapsed=0:05:14.75    \nframe=  181 fps=0.6 q=38.4 size=    1280KiB time=00:00:03.58 bitrate=2929.1kbits/s speed=0.0114x elapsed=0:05:15.27    \nframe=  182 fps=0.6 q=42.6 size=    1280KiB time=00:00:03.60 bitrate=2912.8kbits/s speed=0.0114x elapsed=0:05:15.80    \nframe=  182 fps=0.6 q=42.6 size=    1280KiB time=00:00:03.60 bitrate=2912.8kbits/s speed=0.0114x elapsed=0:05:16.35    \nframe=  183 fps=0.6 q=44.8 size=    1280KiB time=00:00:03.62 bitrate=2896.7kbits/s speed=0.0114x elapsed=0:05:16.86    \nframe=  184 fps=0.6 q=45.3 size=    1280KiB time=00:00:03.64 bitrate=2880.8kbits/s speed=0.0115x elapsed=0:05:17.40    \nframe=  185 fps=0.6 q=38.4 size=    1280KiB time=00:00:03.66 bitrate=2865.1kbits/s speed=0.0115x elapsed=0:05:17.92    \nframe=  186 fps=0.6 q=42.7 size=    1280KiB time=00:00:03.68 bitrate=2849.5kbits/s speed=0.0116x elapsed=0:05:18.44    \nframe=  187 fps=0.6 q=45.4 size=    1280KiB time=00:00:03.70 bitrate=2834.1kbits/s speed=0.0116x elapsed=0:05:18.96    \nframe=  187 fps=0.6 q=45.4 size=    1280KiB time=00:00:03.70 bitrate=2834.1kbits/s speed=0.0116x elapsed=0:05:19.47    \nframe=  188 fps=0.6 q=45.3 size=    1280KiB time=00:00:03.72 bitrate=2818.8kbits/s speed=0.0116x elapsed=0:05:19.99    \nframe=  189 fps=0.6 q=38.5 size=    1280KiB time=00:00:03.74 bitrate=2803.8kbits/s speed=0.0117x elapsed=0:05:20.51    \nframe=  189 fps=0.6 q=38.5 size=    1280KiB time=00:00:03.74 bitrate=2803.8kbits/s speed=0.0117x elapsed=0:05:21.02    \nframe=  190 fps=0.6 q=42.6 size=    1280KiB time=00:00:03.76 bitrate=2788.9kbits/s speed=0.0117x elapsed=0:05:21.54    \nframe=  191 fps=0.6 q=45.5 size=    1280KiB time=00:00:03.78 bitrate=2774.1kbits/s speed=0.0117x elapsed=0:05:22.06    \nframe=  191 fps=0.6 q=45.5 size=    1280KiB time=00:00:03.78 bitrate=2774.1kbits/s speed=0.0117x elapsed=0:05:22.56    \nframe=  192 fps=0.6 q=45.5 size=    1280KiB time=00:00:03.80 bitrate=2759.5kbits/s speed=0.0118x elapsed=0:05:23.08    \nframe=  193 fps=0.6 q=38.4 size=    1280KiB time=00:00:03.82 bitrate=2745.1kbits/s speed=0.0118x elapsed=0:05:23.61    \nframe=  194 fps=0.6 q=42.8 size=    1280KiB time=00:00:03.84 bitrate=2730.8kbits/s speed=0.0118x elapsed=0:05:24.11    \nframe=  195 fps=0.6 q=45.3 size=    1280KiB time=00:00:03.86 bitrate=2716.6kbits/s speed=0.0119x elapsed=0:05:24.64    \nframe=  195 fps=0.6 q=45.3 size=    1280KiB time=00:00:03.86 bitrate=2716.6kbits/s speed=0.0119x elapsed=0:05:25.16    \nframe=  196 fps=0.6 q=45.3 size=    1280KiB time=00:00:03.88 bitrate=2702.6kbits/s speed=0.0119x elapsed=0:05:25.68    \nframe=  198 fps=0.6 q=42.9 size=    1280KiB time=00:00:03.92 bitrate=2675.0kbits/s speed=0.012x elapsed=0:05:26.20    \nframe=  199 fps=0.6 q=45.2 size=    1280KiB time=00:00:03.94 bitrate=2661.4kbits/s speed=0.0121x elapsed=0:05:26.71    \nframe=  199 fps=0.6 q=45.2 size=    1280KiB time=00:00:03.94 bitrate=2661.4kbits/s speed=0.012x elapsed=0:05:27.24    \nframe=  200 fps=0.6 q=45.6 size=    1280KiB time=00:00:03.96 bitrate=2648.0kbits/s speed=0.0121x elapsed=0:05:27.76    \nframe=  202 fps=0.6 q=42.7 size=    1280KiB time=00:00:04.00 bitrate=2621.5kbits/s speed=0.0122x elapsed=0:05:28.28    \nframe=  202 fps=0.6 q=42.7 size=    1280KiB time=00:00:04.00 bitrate=2621.5kbits/s speed=0.0122x elapsed=0:05:28.81    \nframe=  203 fps=0.6 q=45.4 size=    1280KiB time=00:00:04.02 bitrate=2608.5kbits/s speed=0.0122x elapsed=0:05:29.33    \nframe=  204 fps=0.6 q=45.5 size=    1280KiB time=00:00:04.04 bitrate=2595.6kbits/s speed=0.0122x elapsed=0:05:29.85    \nframe=  204 fps=0.6 q=45.5 size=    1280KiB time=00:00:04.04 bitrate=2595.6kbits/s speed=0.0122x elapsed=0:05:30.37    \nframe=  204 fps=0.6 q=45.5 size=    1280KiB time=00:00:04.04 bitrate=2595.6kbits/s speed=0.0122x elapsed=0:05:30.90    \nframe=  206 fps=0.6 q=43.0 size=    1280KiB time=00:00:04.08 bitrate=2570.1kbits/s speed=0.0123x elapsed=0:05:31.42    \nframe=  206 fps=0.6 q=43.0 size=    1280KiB time=00:00:04.08 bitrate=2570.1kbits/s speed=0.0123x elapsed=0:05:31.94    \nframe=  206 fps=0.6 q=43.0 size=    1280KiB time=00:00:04.08 bitrate=2570.1kbits/s speed=0.0123x elapsed=0:05:32.47    \nframe=  207 fps=0.6 q=45.6 size=    1280KiB time=00:00:04.10 bitrate=2557.6kbits/s speed=0.0123x elapsed=0:05:33.00    \nframe=  207 fps=0.6 q=45.6 size=    1280KiB time=00:00:04.10 bitrate=2557.6kbits/s speed=0.0123x elapsed=0:05:33.52    \nframe=  207 fps=0.6 q=45.6 size=    1280KiB time=00:00:04.10 bitrate=2557.6kbits/s speed=0.0123x elapsed=0:05:34.03    \nframe=  208 fps=0.6 q=45.6 size=    1280KiB time=00:00:04.12 bitrate=2545.2kbits/s speed=0.0123x elapsed=0:05:34.56    \nframe=  209 fps=0.6 q=38.5 size=    1280KiB time=00:00:04.14 bitrate=2532.9kbits/s speed=0.0124x elapsed=0:05:35.09    \nframe=  209 fps=0.6 q=38.5 size=    1280KiB time=00:00:04.14 bitrate=2532.9kbits/s speed=0.0123x elapsed=0:05:35.60    \nframe=  209 fps=0.6 q=38.5 size=    1280KiB time=00:00:04.14 bitrate=2532.9kbits/s speed=0.0123x elapsed=0:05:36.13    \nframe=  209 fps=0.6 q=38.5 size=    1280KiB time=00:00:04.14 bitrate=2532.9kbits/s speed=0.0123x elapsed=0:05:36.70    \nframe=  209 fps=0.6 q=38.5 size=    1280KiB time=00:00:04.14 bitrate=2532.9kbits/s speed=0.0123x elapsed=0:05:37.23    \nframe=  209 fps=0.6 q=38.5 size=    1280KiB time=00:00:04.14 bitrate=2532.9kbits/s speed=0.0123x elapsed=0:05:37.76    \nframe=  209 fps=0.6 q=38.5 size=    1280KiB time=00:00:04.14 bitrate=2532.9kbits/s speed=0.0122x elapsed=0:05:38.28    \nframe=  210 fps=0.6 q=42.8 size=    1536KiB time=00:00:04.16 bitrate=3024.8kbits/s speed=0.0123x elapsed=0:05:38.80    \nframe=  210 fps=0.6 q=42.8 size=    1536KiB time=00:00:04.16 bitrate=3024.8kbits/s speed=0.0123x elapsed=0:05:39.32    \nframe=  210 fps=0.6 q=42.8 size=    1536KiB time=00:00:04.16 bitrate=3024.8kbits/s speed=0.0122x elapsed=0:05:39.88    \nframe=  211 fps=0.6 q=45.3 size=    1536KiB time=00:00:04.18 bitrate=3010.4kbits/s speed=0.0123x elapsed=0:05:40.42    \nframe=  212 fps=0.6 q=45.5 size=    1536KiB time=00:00:04.20 bitrate=2996.0kbits/s speed=0.0123x elapsed=0:05:40.95    \nframe=  212 fps=0.6 q=45.5 size=    1536KiB time=00:00:04.20 bitrate=2996.0kbits/s speed=0.0123x elapsed=0:05:41.47    \nframe=  212 fps=0.6 q=45.5 size=    1536KiB time=00:00:04.20 bitrate=2996.0kbits/s speed=0.0123x elapsed=0:05:41.99    \nframe=  213 fps=0.6 q=38.4 size=    1536KiB time=00:00:04.22 bitrate=2981.8kbits/s speed=0.0123x elapsed=0:05:42.51    \nframe=  214 fps=0.6 q=42.8 size=    1536KiB time=00:00:04.24 bitrate=2967.8kbits/s speed=0.0124x elapsed=0:05:43.03    \nframe=  214 fps=0.6 q=42.8 size=    1536KiB time=00:00:04.24 bitrate=2967.8kbits/s speed=0.0123x elapsed=0:05:43.55    \nframe=  215 fps=0.6 q=45.2 size=    1536KiB time=00:00:04.26 bitrate=2953.8kbits/s speed=0.0124x elapsed=0:05:44.07    \nframe=  215 fps=0.6 q=45.2 size=    1536KiB time=00:00:04.26 bitrate=2953.8kbits/s speed=0.0124x elapsed=0:05:44.59    \nframe=  215 fps=0.6 q=45.2 size=    1536KiB time=00:00:04.26 bitrate=2953.8kbits/s speed=0.0123x elapsed=0:05:45.14    \nframe=  216 fps=0.6 q=45.6 size=    1536KiB time=00:00:04.28 bitrate=2940.0kbits/s speed=0.0124x elapsed=0:05:45.67    \nframe=  217 fps=0.6 q=38.5 size=    1536KiB time=00:00:04.30 bitrate=2926.3kbits/s speed=0.0124x elapsed=0:05:46.19    \nframe=  217 fps=0.6 q=38.5 size=    1536KiB time=00:00:04.30 bitrate=2926.3kbits/s speed=0.0124x elapsed=0:05:46.71    \nframe=  217 fps=0.6 q=38.5 size=    1536KiB time=00:00:04.30 bitrate=2926.3kbits/s speed=0.0124x elapsed=0:05:47.24    \nframe=  218 fps=0.6 q=42.9 size=    1536KiB time=00:00:04.32 bitrate=2912.8kbits/s speed=0.0124x elapsed=0:05:47.75    \nframe=  218 fps=0.6 q=42.9 size=    1536KiB time=00:00:04.32 bitrate=2912.8kbits/s speed=0.0124x elapsed=0:05:48.28    \nframe=  218 fps=0.6 q=42.9 size=    1536KiB time=00:00:04.32 bitrate=2912.8kbits/s speed=0.0124x elapsed=0:05:48.78    \nframe=  219 fps=0.6 q=45.3 size=    1536KiB time=00:00:04.34 bitrate=2899.4kbits/s speed=0.0124x elapsed=0:05:49.30    \nframe=  219 fps=0.6 q=45.3 size=    1536KiB time=00:00:04.34 bitrate=2899.4kbits/s speed=0.0124x elapsed=0:05:49.84    \nframe=  220 fps=0.6 q=45.4 size=    1536KiB time=00:00:04.36 bitrate=2886.1kbits/s speed=0.0124x elapsed=0:05:50.37    \nframe=  221 fps=0.6 q=38.5 size=    1536KiB time=00:00:04.38 bitrate=2872.9kbits/s speed=0.0125x elapsed=0:05:50.89    \nframe=  221 fps=0.6 q=38.5 size=    1536KiB time=00:00:04.38 bitrate=2872.9kbits/s speed=0.0125x elapsed=0:05:51.41    \nframe=  222 fps=0.6 q=42.9 size=    1536KiB time=00:00:04.40 bitrate=2859.8kbits/s speed=0.0125x elapsed=0:05:51.93    \nframe=  222 fps=0.6 q=42.9 size=    1536KiB time=00:00:04.40 bitrate=2859.8kbits/s speed=0.0125x elapsed=0:05:52.45    \nframe=  222 fps=0.6 q=42.9 size=    1536KiB time=00:00:04.40 bitrate=2859.8kbits/s speed=0.0125x elapsed=0:05:52.97    \nframe=  223 fps=0.6 q=45.4 size=    1536KiB time=00:00:04.42 bitrate=2846.9kbits/s speed=0.0125x elapsed=0:05:53.48    \nframe=  223 fps=0.6 q=45.4 size=    1536KiB time=00:00:04.42 bitrate=2846.9kbits/s speed=0.0125x elapsed=0:05:54.03    \nframe=  224 fps=0.6 q=45.4 size=    1536KiB time=00:00:04.42 bitrate=2846.9kbits/s speed=0.0125x elapsed=0:05:54.63    \nframe=  224 fps=0.6 q=45.4 size=    1536KiB time=00:00:04.44 bitrate=2834.1kbits/s speed=0.0125x elapsed=0:05:55.21    \nframe=  224 fps=0.6 q=45.4 size=    1536KiB time=00:00:04.44 bitrate=2834.1kbits/s speed=0.0125x elapsed=0:05:55.75    \nframe=  224 fps=0.6 q=45.4 size=    1536KiB time=00:00:04.44 bitrate=2834.1kbits/s speed=0.0125x elapsed=0:05:56.29    \nframe=  225 fps=0.6 q=38.6 size=    1536KiB time=00:00:04.46 bitrate=2821.4kbits/s speed=0.0125x elapsed=0:05:56.80    \nframe=  225 fps=0.6 q=38.6 size=    1536KiB time=00:00:04.46 bitrate=2821.4kbits/s speed=0.0125x elapsed=0:05:57.33    \nframe=  226 fps=0.6 q=42.7 size=    1536KiB time=00:00:04.48 bitrate=2808.8kbits/s speed=0.0125x elapsed=0:05:57.86    \nframe=  227 fps=0.6 q=45.5 size=    1536KiB time=00:00:04.50 bitrate=2796.3kbits/s speed=0.0126x elapsed=0:05:58.39    \nframe=  228 fps=0.6 q=45.5 size=    1536KiB time=00:00:04.52 bitrate=2783.9kbits/s speed=0.0126x elapsed=0:05:58.92    \nframe=  228 fps=0.6 q=45.5 size=    1536KiB time=00:00:04.52 bitrate=2783.9kbits/s speed=0.0126x elapsed=0:05:59.45    \nframe=  229 fps=0.6 q=38.7 size=    1536KiB time=00:00:04.54 bitrate=2771.6kbits/s speed=0.0126x elapsed=0:05:59.98    \nframe=  231 fps=0.6 q=45.3 size=    1536KiB time=00:00:04.58 bitrate=2747.4kbits/s speed=0.0127x elapsed=0:06:00.50    \nframe=  232 fps=0.6 q=45.6 size=    1536KiB time=00:00:04.60 bitrate=2735.5kbits/s speed=0.0127x elapsed=0:06:01.02    \nframe=  232 fps=0.6 q=45.6 size=    1536KiB time=00:00:04.60 bitrate=2735.5kbits/s speed=0.0127x elapsed=0:06:01.54    \nframe=  232 fps=0.6 q=45.6 size=    1536KiB time=00:00:04.60 bitrate=2735.5kbits/s speed=0.0127x elapsed=0:06:02.06    \nframe=  234 fps=0.6 q=42.9 size=    1536KiB time=00:00:04.64 bitrate=2711.9kbits/s speed=0.0128x elapsed=0:06:02.58    \nframe=  234 fps=0.6 q=42.9 size=    1536KiB time=00:00:04.64 bitrate=2711.9kbits/s speed=0.0128x elapsed=0:06:03.11    \nframe=  236 fps=0.6 q=45.4 size=    1536KiB time=00:00:04.68 bitrate=2688.7kbits/s speed=0.0129x elapsed=0:06:03.64    \nframe=  236 fps=0.6 q=45.4 size=    1536KiB time=00:00:04.68 bitrate=2688.7kbits/s speed=0.0129x elapsed=0:06:04.14    \nframe=  236 fps=0.6 q=45.4 size=    1536KiB time=00:00:04.68 bitrate=2688.7kbits/s speed=0.0128x elapsed=0:06:04.66    \nframe=  238 fps=0.7 q=42.8 size=    1536KiB time=00:00:04.72 bitrate=2665.9kbits/s speed=0.0129x elapsed=0:06:05.18    \nframe=  238 fps=0.7 q=42.8 size=    1536KiB time=00:00:04.72 bitrate=2665.9kbits/s speed=0.0129x elapsed=0:06:05.71    \nframe=  239 fps=0.7 q=45.6 size=    1536KiB time=00:00:04.74 bitrate=2654.7kbits/s speed=0.0129x elapsed=0:06:06.22    \nframe=  240 fps=0.7 q=45.6 size=    1536KiB time=00:00:04.76 bitrate=2643.5kbits/s speed=0.013x elapsed=0:06:06.74    \nframe=  241 fps=0.7 q=39.6 size=    1536KiB time=00:00:04.78 bitrate=2632.5kbits/s speed=0.013x elapsed=0:06:07.26    \nframe=  242 fps=0.7 q=43.7 size=    1536KiB time=00:00:04.80 bitrate=2621.5kbits/s speed=0.0131x elapsed=0:06:07.79    \nframe=  243 fps=0.7 q=45.5 size=    1536KiB time=00:00:04.82 bitrate=2610.6kbits/s speed=0.0131x elapsed=0:06:08.32    \nframe=  244 fps=0.7 q=45.2 size=    1536KiB time=00:00:04.84 bitrate=2599.8kbits/s speed=0.0131x elapsed=0:06:08.84    \nframe=  245 fps=0.7 q=45.5 size=    1536KiB time=00:00:04.86 bitrate=2589.1kbits/s speed=0.0132x elapsed=0:06:09.36    \nframe=  246 fps=0.7 q=42.2 size=    1536KiB time=00:00:04.88 bitrate=2578.5kbits/s speed=0.0132x elapsed=0:06:09.89    \nframe=  246 fps=0.7 q=42.2 size=    1536KiB time=00:00:04.88 bitrate=2578.5kbits/s speed=0.0132x elapsed=0:06:10.42    \nframe=  247 fps=0.7 q=43.5 size=    1792KiB time=00:00:04.90 bitrate=2996.0kbits/s speed=0.0132x elapsed=0:06:10.94    \n[mp4 @ 000002205ea9aa40] Starting second pass: moving the moov atom to the beginning of the file\n[out#0/mp4 @ 000002205eb27d80] video:1811KiB audio:0KiB subtitle:0KiB other streams:0KiB global headers:2KiB muxing overhead: 0.354024%\nframe=  250 fps=0.7 q=44.8 Lsize=    1817KiB time=00:00:04.96 bitrate=3001.1kbits/s speed=0.0134x elapsed=0:06:11.13    \nx265 [info]: frame I:      1, Avg QP:40.61  kb/s: 12254.00\nx265 [info]: frame P:     60, Avg QP:39.25  kb/s: 8517.99 \nx265 [info]: frame B:    189, Avg QP:44.22  kb/s: 1152.97 \nx265 [info]: Weighted P-Frames: Y:0.0% UV:0.0%\n\nencoded 250 frames in 369.95s (0.68 fps), 2964.97 kb/s, Avg QP:43.01\n",
  "seconds": 372.1355791091919,
  "probe_out": {}
}